<svg width="309" height="61" viewBox="0 0 309 61" fill="none" xmlns="http://www.w3.org/2000/svg">
<rect width="144" height="61" rx="20" fill="#EDA415"/>
<path d="M36.96 36.612C36.1813 36.612 35.4773 36.4787 34.848 36.212C34.2293 35.9453 33.7387 35.5613 33.376 35.06C33.0133 34.5587 32.8267 33.9667 32.816 33.284H35.216C35.248 33.7427 35.408 34.1053 35.696 34.372C35.9947 34.6387 36.4 34.772 36.912 34.772C37.4347 34.772 37.8453 34.6493 38.144 34.404C38.4427 34.148 38.592 33.8173 38.592 33.412C38.592 33.0813 38.4907 32.8093 38.288 32.596C38.0853 32.3827 37.8293 32.2173 37.52 32.1C37.2213 31.972 36.8053 31.8333 36.272 31.684C35.5467 31.4707 34.9547 31.2627 34.496 31.06C34.048 30.8467 33.6587 30.532 33.328 30.116C33.008 29.6893 32.848 29.124 32.848 28.42C32.848 27.7587 33.0133 27.1827 33.344 26.692C33.6747 26.2013 34.1387 25.828 34.736 25.572C35.3333 25.3053 36.016 25.172 36.784 25.172C37.936 25.172 38.8693 25.4547 39.584 26.02C40.3093 26.5747 40.7093 27.3533 40.784 28.356H38.32C38.2987 27.972 38.1333 27.6573 37.824 27.412C37.5253 27.156 37.1253 27.028 36.624 27.028C36.1867 27.028 35.8347 27.14 35.568 27.364C35.312 27.588 35.184 27.9133 35.184 28.34C35.184 28.6387 35.28 28.8893 35.472 29.092C35.6747 29.284 35.92 29.444 36.208 29.572C36.5067 29.6893 36.9227 29.828 37.456 29.988C38.1813 30.2013 38.7733 30.4147 39.232 30.628C39.6907 30.8413 40.0853 31.1613 40.416 31.588C40.7467 32.0147 40.912 32.5747 40.912 33.268C40.912 33.8653 40.7573 34.42 40.448 34.932C40.1387 35.444 39.6853 35.8547 39.088 36.164C38.4907 36.4627 37.7813 36.612 36.96 36.612ZM47.846 27.508C48.518 27.508 49.1153 27.6573 49.638 27.956C50.1607 28.244 50.566 28.676 50.854 29.252C51.1527 29.8173 51.302 30.5 51.302 31.3V36.5H49.062V31.604C49.062 30.9 48.886 30.3613 48.534 29.988C48.182 29.604 47.702 29.412 47.094 29.412C46.4753 29.412 45.9847 29.604 45.622 29.988C45.27 30.3613 45.094 30.9 45.094 31.604V36.5H42.854V24.66H45.094V28.74C45.382 28.356 45.766 28.0573 46.246 27.844C46.726 27.62 47.2593 27.508 47.846 27.508ZM57.3681 36.644C56.5148 36.644 55.7468 36.4573 55.0641 36.084C54.3815 35.7 53.8428 35.1613 53.4481 34.468C53.0641 33.7747 52.8721 32.9747 52.8721 32.068C52.8721 31.1613 53.0695 30.3613 53.4641 29.668C53.8695 28.9747 54.4188 28.4413 55.1121 28.068C55.8055 27.684 56.5788 27.492 57.4321 27.492C58.2855 27.492 59.0588 27.684 59.7521 28.068C60.4455 28.4413 60.9895 28.9747 61.3841 29.668C61.7895 30.3613 61.9921 31.1613 61.9921 32.068C61.9921 32.9747 61.7841 33.7747 61.3681 34.468C60.9628 35.1613 60.4081 35.7 59.7041 36.084C59.0108 36.4573 58.2321 36.644 57.3681 36.644ZM57.3681 34.692C57.7735 34.692 58.1521 34.596 58.5041 34.404C58.8668 34.2013 59.1548 33.9027 59.3681 33.508C59.5815 33.1133 59.6881 32.6333 59.6881 32.068C59.6881 31.2253 59.4641 30.58 59.0161 30.132C58.5788 29.6733 58.0401 29.444 57.4001 29.444C56.7601 29.444 56.2215 29.6733 55.7841 30.132C55.3575 30.58 55.1441 31.2253 55.1441 32.068C55.1441 32.9107 55.3521 33.5613 55.7681 34.02C56.1948 34.468 56.7281 34.692 57.3681 34.692ZM65.8753 28.916C66.1633 28.5107 66.5579 28.1747 67.0593 27.908C67.5713 27.6307 68.1526 27.492 68.8033 27.492C69.5606 27.492 70.2433 27.6787 70.8513 28.052C71.4699 28.4253 71.9553 28.9587 72.3073 29.652C72.6699 30.3347 72.8513 31.1293 72.8513 32.036C72.8513 32.9427 72.6699 33.748 72.3073 34.452C71.9553 35.1453 71.4699 35.684 70.8513 36.068C70.2433 36.452 69.5606 36.644 68.8033 36.644C68.1526 36.644 67.5766 36.5107 67.0753 36.244C66.5846 35.9773 66.1846 35.6413 65.8753 35.236V40.724H63.6353V27.636H65.8753V28.916ZM70.5633 32.036C70.5633 31.5027 70.4513 31.044 70.2273 30.66C70.0139 30.2653 69.7259 29.9667 69.3633 29.764C69.0113 29.5613 68.6273 29.46 68.2113 29.46C67.8059 29.46 67.4219 29.5667 67.0593 29.78C66.7073 29.9827 66.4193 30.2813 66.1953 30.676C65.9819 31.0707 65.8753 31.5347 65.8753 32.068C65.8753 32.6013 65.9819 33.0653 66.1953 33.46C66.4193 33.8547 66.7073 34.1587 67.0593 34.372C67.4219 34.5747 67.8059 34.676 68.2113 34.676C68.6273 34.676 69.0113 34.5693 69.3633 34.356C69.7259 34.1427 70.0139 33.8387 70.2273 33.444C70.4513 33.0493 70.5633 32.58 70.5633 32.036ZM83.2035 27.508C84.2595 27.508 85.1128 27.844 85.7635 28.516C86.4142 29.1773 86.7395 30.1053 86.7395 31.3V36.5H84.4995V31.604C84.4995 30.9 84.3235 30.3613 83.9715 29.988C83.6195 29.604 83.1395 29.412 82.5315 29.412C81.9128 29.412 81.4222 29.604 81.0595 29.988C80.7075 30.3613 80.5315 30.9 80.5315 31.604V36.5H78.2915V27.636H80.5315V28.74C80.8302 28.356 81.2088 28.0573 81.6675 27.844C82.1368 27.62 82.6488 27.508 83.2035 27.508ZM92.8056 36.644C91.9523 36.644 91.1843 36.4573 90.5016 36.084C89.819 35.7 89.2803 35.1613 88.8856 34.468C88.5016 33.7747 88.3096 32.9747 88.3096 32.068C88.3096 31.1613 88.507 30.3613 88.9016 29.668C89.307 28.9747 89.8563 28.4413 90.5496 28.068C91.243 27.684 92.0163 27.492 92.8696 27.492C93.723 27.492 94.4963 27.684 95.1896 28.068C95.883 28.4413 96.427 28.9747 96.8216 29.668C97.227 30.3613 97.4296 31.1613 97.4296 32.068C97.4296 32.9747 97.2216 33.7747 96.8056 34.468C96.4003 35.1613 95.8456 35.7 95.1416 36.084C94.4483 36.4573 93.6696 36.644 92.8056 36.644ZM92.8056 34.692C93.211 34.692 93.5896 34.596 93.9416 34.404C94.3043 34.2013 94.5923 33.9027 94.8056 33.508C95.019 33.1133 95.1256 32.6333 95.1256 32.068C95.1256 31.2253 94.9016 30.58 94.4536 30.132C94.0163 29.6733 93.4776 29.444 92.8376 29.444C92.1976 29.444 91.659 29.6733 91.2216 30.132C90.795 30.58 90.5816 31.2253 90.5816 32.068C90.5816 32.9107 90.7896 33.5613 91.2056 34.02C91.6323 34.468 92.1656 34.692 92.8056 34.692ZM111.361 27.636L108.769 36.5H106.353L104.737 30.308L103.121 36.5H100.689L98.0808 27.636H100.353L101.921 34.388L103.617 27.636H105.985L107.649 34.372L109.217 27.636H111.361Z" fill="white"/>
<path d="M204.636 25.332L200.54 36.5H197.82L193.724 25.332H196.124L199.196 34.212L202.252 25.332H204.636ZM207.115 26.58C206.72 26.58 206.39 26.4573 206.123 26.212C205.867 25.956 205.739 25.6413 205.739 25.268C205.739 24.8947 205.867 24.5853 206.123 24.34C206.39 24.084 206.72 23.956 207.115 23.956C207.51 23.956 207.835 24.084 208.091 24.34C208.358 24.5853 208.491 24.8947 208.491 25.268C208.491 25.6413 208.358 25.956 208.091 26.212C207.835 26.4573 207.51 26.58 207.115 26.58ZM208.219 27.636V36.5H205.979V27.636H208.219ZM218.672 31.876C218.672 32.196 218.651 32.484 218.608 32.74H212.128C212.181 33.38 212.405 33.8813 212.8 34.244C213.195 34.6067 213.68 34.788 214.256 34.788C215.088 34.788 215.68 34.4307 216.032 33.716H218.448C218.192 34.5693 217.701 35.2733 216.976 35.828C216.251 36.372 215.36 36.644 214.304 36.644C213.451 36.644 212.683 36.4573 212 36.084C211.328 35.7 210.8 35.1613 210.416 34.468C210.043 33.7747 209.856 32.9747 209.856 32.068C209.856 31.1507 210.043 30.3453 210.416 29.652C210.789 28.9587 211.312 28.4253 211.984 28.052C212.656 27.6787 213.429 27.492 214.304 27.492C215.147 27.492 215.899 27.6733 216.56 28.036C217.232 28.3987 217.749 28.916 218.112 29.588C218.485 30.2493 218.672 31.012 218.672 31.876ZM216.352 31.236C216.341 30.66 216.133 30.2013 215.728 29.86C215.323 29.508 214.827 29.332 214.24 29.332C213.685 29.332 213.216 29.5027 212.832 29.844C212.459 30.1747 212.229 30.6387 212.144 31.236H216.352ZM232.595 27.636L230.003 36.5H227.587L225.971 30.308L224.355 36.5H221.923L219.315 27.636H221.587L223.155 34.388L224.851 27.636H227.219L228.883 34.372L230.451 27.636H232.595ZM248.628 27.508C249.716 27.508 250.59 27.844 251.252 28.516C251.924 29.1773 252.26 30.1053 252.26 31.3V36.5H250.02V31.604C250.02 30.9107 249.844 30.3827 249.492 30.02C249.14 29.6467 248.66 29.46 248.052 29.46C247.444 29.46 246.958 29.6467 246.596 30.02C246.244 30.3827 246.068 30.9107 246.068 31.604V36.5H243.828V31.604C243.828 30.9107 243.652 30.3827 243.3 30.02C242.948 29.6467 242.468 29.46 241.86 29.46C241.241 29.46 240.75 29.6467 240.388 30.02C240.036 30.3827 239.86 30.9107 239.86 31.604V36.5H237.62V27.636H239.86V28.708C240.148 28.3347 240.516 28.0413 240.964 27.828C241.422 27.6147 241.924 27.508 242.468 27.508C243.161 27.508 243.78 27.6573 244.324 27.956C244.868 28.244 245.289 28.66 245.588 29.204C245.876 28.692 246.292 28.2813 246.836 27.972C247.39 27.6627 247.988 27.508 248.628 27.508ZM258.321 36.644C257.468 36.644 256.7 36.4573 256.017 36.084C255.335 35.7 254.796 35.1613 254.401 34.468C254.017 33.7747 253.825 32.9747 253.825 32.068C253.825 31.1613 254.023 30.3613 254.417 29.668C254.823 28.9747 255.372 28.4413 256.065 28.068C256.759 27.684 257.532 27.492 258.385 27.492C259.239 27.492 260.012 27.684 260.705 28.068C261.399 28.4413 261.943 28.9747 262.337 29.668C262.743 30.3613 262.945 31.1613 262.945 32.068C262.945 32.9747 262.737 33.7747 262.321 34.468C261.916 35.1613 261.361 35.7 260.657 36.084C259.964 36.4573 259.185 36.644 258.321 36.644ZM258.321 34.692C258.727 34.692 259.105 34.596 259.457 34.404C259.82 34.2013 260.108 33.9027 260.321 33.508C260.535 33.1133 260.641 32.6333 260.641 32.068C260.641 31.2253 260.417 30.58 259.969 30.132C259.532 29.6733 258.993 29.444 258.353 29.444C257.713 29.444 257.175 29.6733 256.737 30.132C256.311 30.58 256.097 31.2253 256.097 32.068C256.097 32.9107 256.305 33.5613 256.721 34.02C257.148 34.468 257.681 34.692 258.321 34.692ZM266.828 29.012C267.116 28.5427 267.49 28.1747 267.948 27.908C268.418 27.6413 268.951 27.508 269.548 27.508V29.86H268.956C268.252 29.86 267.719 30.0253 267.356 30.356C267.004 30.6867 266.828 31.2627 266.828 32.084V36.5H264.588V27.636H266.828V29.012ZM279.297 31.876C279.297 32.196 279.276 32.484 279.233 32.74H272.753C272.806 33.38 273.03 33.8813 273.425 34.244C273.82 34.6067 274.305 34.788 274.881 34.788C275.713 34.788 276.305 34.4307 276.657 33.716H279.073C278.817 34.5693 278.326 35.2733 277.601 35.828C276.876 36.372 275.985 36.644 274.929 36.644C274.076 36.644 273.308 36.4573 272.625 36.084C271.953 35.7 271.425 35.1613 271.041 34.468C270.668 33.7747 270.481 32.9747 270.481 32.068C270.481 31.1507 270.668 30.3453 271.041 29.652C271.414 28.9587 271.937 28.4253 272.609 28.052C273.281 27.6787 274.054 27.492 274.929 27.492C275.772 27.492 276.524 27.6733 277.185 28.036C277.857 28.3987 278.374 28.916 278.737 29.588C279.11 30.2493 279.297 31.012 279.297 31.876ZM276.977 31.236C276.966 30.66 276.758 30.2013 276.353 29.86C275.948 29.508 275.452 29.332 274.865 29.332C274.31 29.332 273.841 29.5027 273.457 29.844C273.084 30.1747 272.854 30.6387 272.769 31.236H276.977Z" fill="#316887"/>
<rect x="165.5" y="0.5" width="143" height="60" rx="19.5" stroke="#316887"/>
</svg>
