<svg width="297" height="61" viewBox="0 0 297 61" fill="none" xmlns="http://www.w3.org/2000/svg">
<rect y="0.5625" width="204.576" height="59.9958" rx="19.6707" fill="#87BCD9"/>
<path d="M33.3931 34.4673H29.0183L28.2944 36.5603H25.9811L29.931 25.5604H32.4961L36.446 36.5603H34.1169L33.3931 34.4673ZM32.7951 32.7048L31.2057 28.1097L29.6163 32.7048H32.7951ZM37.3558 32.1698C37.3558 31.2885 37.5289 30.507 37.8752 29.825C38.2318 29.1431 38.7144 28.6186 39.3229 28.2514C39.9314 27.8842 40.6081 27.7006 41.3529 27.7006C41.9195 27.7006 42.4597 27.8265 42.9738 28.0783C43.4879 28.3196 43.897 28.6448 44.2013 29.0539V24.9152H46.4359V36.5603H44.2013V35.2699C43.9285 35.7 43.5456 36.0462 43.0525 36.3085C42.5594 36.5708 41.9877 36.7019 41.3372 36.7019C40.6028 36.7019 39.9314 36.5131 39.3229 36.1354C38.7144 35.7577 38.2318 35.2279 37.8752 34.546C37.5289 33.8536 37.3558 33.0615 37.3558 32.1698ZM44.217 32.2013C44.217 31.6662 44.1121 31.2099 43.9023 30.8322C43.6924 30.444 43.4092 30.1503 43.0525 29.9509C42.6958 29.7411 42.3129 29.6362 41.9037 29.6362C41.4946 29.6362 41.1169 29.7359 40.7707 29.9352C40.4245 30.1345 40.1412 30.4283 39.9209 30.8164C39.7111 31.1941 39.6062 31.6452 39.6062 32.1698C39.6062 32.6943 39.7111 33.156 39.9209 33.5546C40.1412 33.9428 40.4245 34.2418 40.7707 34.4516C41.1274 34.6614 41.5051 34.7663 41.9037 34.7663C42.3129 34.7663 42.6958 34.6667 43.0525 34.4673C43.4092 34.2575 43.6924 33.9638 43.9023 33.5861C44.1121 33.1979 44.217 32.7363 44.217 32.2013ZM48.0211 32.1698C48.0211 31.2885 48.1942 30.507 48.5404 29.825C48.8971 29.1431 49.3797 28.6186 49.9882 28.2514C50.5966 27.8842 51.2733 27.7006 52.0182 27.7006C52.5847 27.7006 53.125 27.8265 53.639 28.0783C54.1531 28.3196 54.5623 28.6448 54.8665 29.0539V24.9152H57.1011V36.5603H54.8665V35.2699C54.5937 35.7 54.2108 36.0462 53.7177 36.3085C53.2246 36.5708 52.6529 36.7019 52.0024 36.7019C51.2681 36.7019 50.5966 36.5131 49.9882 36.1354C49.3797 35.7577 48.8971 35.2279 48.5404 34.546C48.1942 33.8536 48.0211 33.0615 48.0211 32.1698ZM54.8822 32.2013C54.8822 31.6662 54.7773 31.2099 54.5675 30.8322C54.3577 30.444 54.0744 30.1503 53.7177 29.9509C53.361 29.7411 52.9781 29.6362 52.569 29.6362C52.1598 29.6362 51.7821 29.7359 51.4359 29.9352C51.0897 30.1345 50.8065 30.4283 50.5861 30.8164C50.3763 31.1941 50.2714 31.6452 50.2714 32.1698C50.2714 32.6943 50.3763 33.156 50.5861 33.5546C50.8065 33.9428 51.0897 34.2418 51.4359 34.4516C51.7926 34.6614 52.1703 34.7663 52.569 34.7663C52.9781 34.7663 53.361 34.6667 53.7177 34.4673C54.0744 34.2575 54.3577 33.9638 54.5675 33.5861C54.7773 33.1979 54.8822 32.7363 54.8822 32.2013ZM65.5676 29.6519V33.8693C65.5676 34.1631 65.6358 34.3782 65.7722 34.5145C65.9191 34.6404 66.1604 34.7034 66.4961 34.7034H67.519V36.5603H66.1341C64.2772 36.5603 63.3488 35.6581 63.3488 33.8536V29.6519H62.3102V27.8422H63.3488V25.6863H65.5676V27.8422H67.519V29.6519H65.5676ZM72.9748 36.7019C72.1355 36.7019 71.3801 36.5183 70.7087 36.1512C70.0373 35.7735 69.5075 35.2437 69.1193 34.5618C68.7416 33.8798 68.5528 33.093 68.5528 32.2013C68.5528 31.3095 68.7469 30.5227 69.135 29.8408C69.5337 29.1589 70.074 28.6343 70.7559 28.2671C71.4378 27.8894 72.1984 27.7006 73.0377 27.7006C73.877 27.7006 74.6376 27.8894 75.3195 28.2671C76.0014 28.6343 76.5365 29.1589 76.9247 29.8408C77.3233 30.5227 77.5227 31.3095 77.5227 32.2013C77.5227 33.093 77.3181 33.8798 76.9089 34.5618C76.5103 35.2437 75.9647 35.7735 75.2723 36.1512C74.5904 36.5183 73.8246 36.7019 72.9748 36.7019ZM72.9748 34.7821C73.3734 34.7821 73.7459 34.6876 74.0921 34.4988C74.4488 34.2995 74.732 34.0057 74.9418 33.6176C75.1517 33.2294 75.2566 32.7573 75.2566 32.2013C75.2566 31.3725 75.0363 30.7378 74.5956 30.2971C74.1655 29.846 73.6357 29.6205 73.0062 29.6205C72.3768 29.6205 71.847 29.846 71.4169 30.2971C70.9972 30.7378 70.7874 31.3725 70.7874 32.2013C70.7874 33.0301 70.992 33.67 71.4011 34.1211C71.8208 34.5618 72.3453 34.7821 72.9748 34.7821ZM82.3219 32.2013C82.3219 31.299 82.5055 30.5122 82.8727 29.8408C83.2399 29.1589 83.7487 28.6343 84.3992 28.2671C85.0496 27.8894 85.7945 27.7006 86.6338 27.7006C87.7144 27.7006 88.6061 27.9734 89.309 28.5189C90.0224 29.0539 90.4997 29.8093 90.741 30.785H88.3648C88.2389 30.4073 88.0238 30.1135 87.7196 29.9037C87.4259 29.6834 87.0587 29.5733 86.618 29.5733C85.9886 29.5733 85.4902 29.8041 85.1231 30.2657C84.7559 30.7168 84.5723 31.362 84.5723 32.2013C84.5723 33.0301 84.7559 33.6753 85.1231 34.1369C85.4902 34.588 85.9886 34.8135 86.618 34.8135C87.5098 34.8135 88.092 34.4149 88.3648 33.6176H90.741C90.4997 34.5618 90.0224 35.3119 89.309 35.8679C88.5956 36.4239 87.7039 36.7019 86.6338 36.7019C85.7945 36.7019 85.0496 36.5183 84.3992 36.1512C83.7487 35.7735 83.2399 35.2489 82.8727 34.5775C82.5055 33.8956 82.3219 33.1035 82.3219 32.2013ZM91.7885 32.1698C91.7885 31.2885 91.9616 30.507 92.3078 29.825C92.6645 29.1431 93.1418 28.6186 93.7398 28.2514C94.3483 27.8842 95.025 27.7006 95.7699 27.7006C96.4203 27.7006 96.9868 27.8317 97.4694 28.094C97.9625 28.3563 98.3559 28.6868 98.6497 29.0854V27.8422H100.869V36.5603H98.6497V35.2856C98.3664 35.6948 97.973 36.0357 97.4694 36.3085C96.9763 36.5708 96.4046 36.7019 95.7541 36.7019C95.0197 36.7019 94.3483 36.5131 93.7398 36.1354C93.1418 35.7577 92.6645 35.2279 92.3078 34.546C91.9616 33.8536 91.7885 33.0615 91.7885 32.1698ZM98.6497 32.2013C98.6497 31.6662 98.5447 31.2099 98.3349 30.8322C98.1251 30.444 97.8418 30.1503 97.4851 29.9509C97.1284 29.7411 96.7455 29.6362 96.3364 29.6362C95.9272 29.6362 95.5495 29.7359 95.2033 29.9352C94.8571 30.1345 94.5739 30.4283 94.3536 30.8164C94.1437 31.1941 94.0388 31.6452 94.0388 32.1698C94.0388 32.6943 94.1437 33.156 94.3536 33.5546C94.5739 33.9428 94.8571 34.2418 95.2033 34.4516C95.56 34.6614 95.9377 34.7663 96.3364 34.7663C96.7455 34.7663 97.1284 34.6667 97.4851 34.4673C97.8418 34.2575 98.1251 33.9638 98.3349 33.5861C98.5447 33.1979 98.6497 32.7363 98.6497 32.2013ZM105.223 29.1956C105.507 28.734 105.874 28.372 106.325 28.1097C106.787 27.8475 107.311 27.7163 107.899 27.7163V30.0296H107.316C106.624 30.0296 106.099 30.1922 105.743 30.5174C105.396 30.8427 105.223 31.4092 105.223 32.217V36.5603H103.02V27.8422H105.223V29.1956ZM111.948 29.6519V33.8693C111.948 34.1631 112.016 34.3782 112.152 34.5145C112.299 34.6404 112.54 34.7034 112.876 34.7034H113.899V36.5603H112.514C110.657 36.5603 109.729 35.6581 109.729 33.8536V29.6519H108.69V27.8422H109.729V25.6863H111.948V27.8422H113.899V29.6519H111.948Z" fill="#272727"/>
<rect x="154.415" y="15.3154" width="30.4897" height="30.4897" rx="15.2448" fill="#EDA415"/>
<path d="M162.488 23.3887H163.736C164.511 23.3887 165.12 24.0556 165.056 24.823L164.461 31.9659C164.36 33.1349 165.285 34.1389 166.462 34.1389H174.099C175.132 34.1389 176.036 33.2927 176.115 32.2671L176.502 26.8884C176.588 25.6979 175.684 24.7298 174.487 24.7298H165.228" stroke="white" stroke-width="1.47531" stroke-miterlimit="10" stroke-linecap="round" stroke-linejoin="round"/>
<path d="M172.708 37.7319C173.203 37.7319 173.605 37.3305 173.605 36.8354C173.605 36.3403 173.203 35.939 172.708 35.939C172.213 35.939 171.812 36.3403 171.812 36.8354C171.812 37.3305 172.213 37.7319 172.708 37.7319Z" stroke="white" stroke-width="1.47531" stroke-miterlimit="10" stroke-linecap="round" stroke-linejoin="round"/>
<path d="M166.971 37.7319C167.466 37.7319 167.867 37.3305 167.867 36.8354C167.867 36.3403 167.466 35.939 166.971 35.939C166.476 35.939 166.074 36.3403 166.074 36.8354C166.074 37.3305 166.476 37.7319 166.971 37.7319Z" stroke="white" stroke-width="1.47531" stroke-miterlimit="10" stroke-linecap="round" stroke-linejoin="round"/>
<path d="M167.509 27.6917H176.115" stroke="white" stroke-width="1.47531" stroke-miterlimit="10" stroke-linecap="round" stroke-linejoin="round"/>
<rect x="225.23" y="0.5625" width="70.8147" height="59.9958" rx="19.6707" fill="#87BCD9"/>
<path d="M266.126 30.5604C266.126 32.5078 264.552 34.0814 262.604 34.0814C260.657 34.0814 259.083 32.5078 259.083 30.5604C259.083 28.613 260.657 27.0393 262.604 27.0393C264.552 27.0393 266.126 28.613 266.126 30.5604Z" stroke="#292D32" stroke-width="1.47531" stroke-linecap="round" stroke-linejoin="round"/>
<path d="M262.605 38.694C266.076 38.694 269.312 36.6483 271.565 33.1076C272.45 31.7208 272.45 29.3898 271.565 28.003C269.312 24.4623 266.076 22.4165 262.605 22.4165C259.133 22.4165 255.897 24.4623 253.645 28.003C252.759 29.3898 252.759 31.7208 253.645 33.1076C255.897 36.6483 259.133 38.694 262.605 38.694Z" stroke="#292D32" stroke-width="1.47531" stroke-linecap="round" stroke-linejoin="round"/>
</svg>
