<svg width="42" height="24" viewBox="0 0 42 24" fill="none" xmlns="http://www.w3.org/2000/svg">
<path d="M13.4094 20.81C13.0694 20.93 12.5094 20.93 12.1694 20.81C9.26943 19.82 2.78943 15.69 2.78943 8.69001C2.78943 5.60001 5.27943 3.10001 8.34943 3.10001C10.1694 3.10001 11.7794 3.98001 12.7894 5.34001C13.7994 3.98001 15.4194 3.10001 17.2294 3.10001C20.2994 3.10001 22.7894 5.60001 22.7894 8.69001C22.7894 15.69 16.3094 19.82 13.4094 20.81Z" stroke="white" stroke-width="1.5" stroke-linecap="round" stroke-linejoin="round"/>
<rect x="27.7894" y="4.5" width="14.2105" height="15" rx="7.10526" fill="#EDA415"/>
<path d="M32.4821 11.5042C32.4821 10.4179 32.6589 9.57158 33.0126 8.96526C33.3663 8.35263 33.9852 8.04632 34.8694 8.04632C35.7473 8.04632 36.3631 8.35263 36.7168 8.96526C37.0705 9.57158 37.2473 10.4179 37.2473 11.5042C37.2473 12.6095 37.0705 13.4684 36.7168 14.0811C36.3631 14.6937 35.7473 15 34.8694 15C33.9852 15 33.3663 14.6937 33.0126 14.0811C32.6589 13.4684 32.4821 12.6095 32.4821 11.5042ZM36.3947 11.5042C36.3947 10.9547 36.3568 10.4905 36.281 10.1116C36.2115 9.72632 36.0631 9.41684 35.8357 9.18316C35.6147 8.94947 35.2926 8.83263 34.8694 8.83263C34.44 8.83263 34.1115 8.94947 33.8842 9.18316C33.6631 9.41684 33.5147 9.72632 33.4389 10.1116C33.3694 10.4905 33.3347 10.9547 33.3347 11.5042C33.3347 12.0726 33.3694 12.5495 33.4389 12.9347C33.5147 13.32 33.6631 13.6295 33.8842 13.8632C34.1115 14.0968 34.44 14.2137 34.8694 14.2137C35.2926 14.2137 35.6147 14.0968 35.8357 13.8632C36.0631 13.6295 36.2115 13.32 36.281 12.9347C36.3568 12.5495 36.3947 12.0726 36.3947 11.5042Z" fill="white"/>
</svg>
