<svg width="439" height="56" viewBox="0 0 439 56" fill="none" xmlns="http://www.w3.org/2000/svg">
<rect x="0.789429" width="438" height="56" rx="20" fill="white"/>
<path d="M29.9614 32.598C29.3174 32.598 28.7388 32.486 28.2254 32.262C27.7214 32.0287 27.3248 31.7113 27.0354 31.31C26.7461 30.8993 26.5968 30.428 26.5874 29.896H27.9454C27.9921 30.3533 28.1788 30.7407 28.5054 31.058C28.8414 31.366 29.3268 31.52 29.9614 31.52C30.5681 31.52 31.0441 31.3707 31.3894 31.072C31.7441 30.764 31.9214 30.372 31.9214 29.896C31.9214 29.5227 31.8188 29.2193 31.6134 28.986C31.4081 28.7527 31.1514 28.5753 30.8434 28.454C30.5354 28.3327 30.1201 28.202 29.5974 28.062C28.9534 27.894 28.4354 27.726 28.0434 27.558C27.6608 27.39 27.3294 27.1287 27.0494 26.774C26.7788 26.41 26.6434 25.9247 26.6434 25.318C26.6434 24.786 26.7788 24.3147 27.0494 23.904C27.3201 23.4933 27.6981 23.176 28.1834 22.952C28.6781 22.728 29.2428 22.616 29.8774 22.616C30.7921 22.616 31.5388 22.8447 32.1174 23.302C32.7054 23.7593 33.0368 24.366 33.1114 25.122H31.7114C31.6648 24.7487 31.4688 24.422 31.1234 24.142C30.7781 23.8527 30.3208 23.708 29.7514 23.708C29.2194 23.708 28.7854 23.848 28.4494 24.128C28.1134 24.3987 27.9454 24.7813 27.9454 25.276C27.9454 25.6307 28.0434 25.92 28.2394 26.144C28.4448 26.368 28.6921 26.5407 28.9814 26.662C29.2801 26.774 29.6954 26.9047 30.2274 27.054C30.8714 27.2313 31.3894 27.4087 31.7814 27.586C32.1734 27.754 32.5094 28.02 32.7894 28.384C33.0694 28.7387 33.2094 29.224 33.2094 29.84C33.2094 30.316 33.0834 30.764 32.8314 31.184C32.5794 31.604 32.2061 31.9447 31.7114 32.206C31.2168 32.4673 30.6334 32.598 29.9614 32.598ZM42.0842 28.37C42.0842 28.6127 42.0702 28.8693 42.0422 29.14H35.9102C35.9569 29.896 36.2136 30.4887 36.6802 30.918C37.1562 31.338 37.7302 31.548 38.4022 31.548C38.9529 31.548 39.4102 31.422 39.7742 31.17C40.1476 30.9087 40.4089 30.5633 40.5582 30.134H41.9302C41.7249 30.8713 41.3142 31.4733 40.6982 31.94C40.0822 32.3973 39.3169 32.626 38.4022 32.626C37.6742 32.626 37.0209 32.4627 36.4422 32.136C35.8729 31.8093 35.4249 31.3473 35.0982 30.75C34.7716 30.1433 34.6082 29.4433 34.6082 28.65C34.6082 27.8567 34.7669 27.1613 35.0842 26.564C35.4016 25.9667 35.8449 25.5093 36.4142 25.192C36.9929 24.8653 37.6556 24.702 38.4022 24.702C39.1302 24.702 39.7742 24.8607 40.3342 25.178C40.8942 25.4953 41.3236 25.934 41.6222 26.494C41.9302 27.0447 42.0842 27.67 42.0842 28.37ZM40.7682 28.104C40.7682 27.6187 40.6609 27.2033 40.4462 26.858C40.2316 26.5033 39.9376 26.2373 39.5642 26.06C39.2002 25.8733 38.7942 25.78 38.3462 25.78C37.7022 25.78 37.1516 25.9853 36.6942 26.396C36.2462 26.8067 35.9896 27.376 35.9242 28.104H40.7682ZM45.0399 26.074C45.2639 25.6353 45.5812 25.2947 45.9919 25.052C46.4119 24.8093 46.9205 24.688 47.5179 24.688V26.004H47.1819C45.7539 26.004 45.0399 26.7787 45.0399 28.328V32.5H43.7659V24.828H45.0399V26.074ZM48.5125 28.636C48.5125 27.852 48.6712 27.166 48.9885 26.578C49.3059 25.9807 49.7399 25.5187 50.2905 25.192C50.8505 24.8653 51.4712 24.702 52.1525 24.702C52.8245 24.702 53.4079 24.8467 53.9025 25.136C54.3972 25.4253 54.7659 25.7893 55.0085 26.228V24.828H56.2965V32.5H55.0085V31.072C54.7565 31.52 54.3785 31.8933 53.8745 32.192C53.3799 32.4813 52.8012 32.626 52.1385 32.626C51.4572 32.626 50.8412 32.458 50.2905 32.122C49.7399 31.786 49.3059 31.3147 48.9885 30.708C48.6712 30.1013 48.5125 29.4107 48.5125 28.636ZM55.0085 28.65C55.0085 28.0713 54.8919 27.5673 54.6585 27.138C54.4252 26.7087 54.1079 26.382 53.7065 26.158C53.3145 25.9247 52.8805 25.808 52.4045 25.808C51.9285 25.808 51.4945 25.92 51.1025 26.144C50.7105 26.368 50.3979 26.6947 50.1645 27.124C49.9312 27.5533 49.8145 28.0573 49.8145 28.636C49.8145 29.224 49.9312 29.7373 50.1645 30.176C50.3979 30.6053 50.7105 30.9367 51.1025 31.17C51.4945 31.394 51.9285 31.506 52.4045 31.506C52.8805 31.506 53.3145 31.394 53.7065 31.17C54.1079 30.9367 54.4252 30.6053 54.6585 30.176C54.8919 29.7373 55.0085 29.2287 55.0085 28.65ZM57.9735 28.65C57.9735 27.8567 58.1321 27.166 58.4495 26.578C58.7668 25.9807 59.2055 25.5187 59.7655 25.192C60.3348 24.8653 60.9835 24.702 61.7115 24.702C62.6541 24.702 63.4288 24.9307 64.0355 25.388C64.6515 25.8453 65.0575 26.48 65.2535 27.292H63.8815C63.7508 26.8253 63.4941 26.4567 63.1115 26.186C62.7381 25.9153 62.2715 25.78 61.7115 25.78C60.9835 25.78 60.3955 26.032 59.9475 26.536C59.4995 27.0307 59.2755 27.7353 59.2755 28.65C59.2755 29.574 59.4995 30.288 59.9475 30.792C60.3955 31.296 60.9835 31.548 61.7115 31.548C62.2715 31.548 62.7381 31.4173 63.1115 31.156C63.4848 30.8947 63.7415 30.5213 63.8815 30.036H65.2535C65.0481 30.82 64.6375 31.45 64.0215 31.926C63.4055 32.3927 62.6355 32.626 61.7115 32.626C60.9835 32.626 60.3348 32.4627 59.7655 32.136C59.2055 31.8093 58.7668 31.3473 58.4495 30.75C58.1321 30.1527 57.9735 29.4527 57.9735 28.65ZM70.7614 24.688C71.34 24.688 71.8627 24.814 72.3294 25.066C72.796 25.3087 73.16 25.6773 73.4214 26.172C73.692 26.6667 73.8274 27.2687 73.8274 27.978V32.5H72.5674V28.16C72.5674 27.3947 72.376 26.8113 71.9934 26.41C71.6107 25.9993 71.088 25.794 70.4254 25.794C69.7534 25.794 69.2167 26.004 68.8154 26.424C68.4234 26.844 68.2274 27.4553 68.2274 28.258V32.5H66.9534V22.14H68.2274V25.92C68.4794 25.528 68.8247 25.2247 69.2634 25.01C69.7114 24.7953 70.2107 24.688 70.7614 24.688ZM79.1649 28.636C79.1649 27.852 79.3235 27.166 79.6409 26.578C79.9582 25.9807 80.3922 25.5187 80.9429 25.192C81.5029 24.8653 82.1235 24.702 82.8049 24.702C83.4769 24.702 84.0602 24.8467 84.5549 25.136C85.0495 25.4253 85.4182 25.7893 85.6609 26.228V24.828H86.9489V32.5H85.6609V31.072C85.4089 31.52 85.0309 31.8933 84.5269 32.192C84.0322 32.4813 83.4535 32.626 82.7909 32.626C82.1095 32.626 81.4935 32.458 80.9429 32.122C80.3922 31.786 79.9582 31.3147 79.6409 30.708C79.3235 30.1013 79.1649 29.4107 79.1649 28.636ZM85.6609 28.65C85.6609 28.0713 85.5442 27.5673 85.3109 27.138C85.0775 26.7087 84.7602 26.382 84.3589 26.158C83.9669 25.9247 83.5329 25.808 83.0569 25.808C82.5809 25.808 82.1469 25.92 81.7549 26.144C81.3629 26.368 81.0502 26.6947 80.8169 27.124C80.5835 27.5533 80.4669 28.0573 80.4669 28.636C80.4669 29.224 80.5835 29.7373 80.8169 30.176C81.0502 30.6053 81.3629 30.9367 81.7549 31.17C82.1469 31.394 82.5809 31.506 83.0569 31.506C83.5329 31.506 83.9669 31.394 84.3589 31.17C84.7602 30.9367 85.0775 30.6053 85.3109 30.176C85.5442 29.7373 85.6609 29.2287 85.6609 28.65ZM92.8398 24.688C93.7731 24.688 94.5291 24.9727 95.1078 25.542C95.6865 26.102 95.9758 26.914 95.9758 27.978V32.5H94.7158V28.16C94.7158 27.3947 94.5245 26.8113 94.1418 26.41C93.7591 25.9993 93.2365 25.794 92.5738 25.794C91.9018 25.794 91.3651 26.004 90.9638 26.424C90.5718 26.844 90.3758 27.4553 90.3758 28.258V32.5H89.1018V24.828H90.3758V25.92C90.6278 25.528 90.9685 25.2247 91.3978 25.01C91.8365 24.7953 92.3171 24.688 92.8398 24.688ZM104.665 24.828L100.045 36.112H98.7289L100.241 32.416L97.1469 24.828H98.5609L100.969 31.044L103.349 24.828H104.665ZM111.232 25.878V30.4C111.232 30.7733 111.311 31.0393 111.47 31.198C111.629 31.3473 111.904 31.422 112.296 31.422H113.234V32.5H112.086C111.377 32.5 110.845 32.3367 110.49 32.01C110.135 31.6833 109.958 31.1467 109.958 30.4V25.878H108.964V24.828H109.958V22.896H111.232V24.828H113.234V25.878H111.232ZM118.586 24.688C119.164 24.688 119.687 24.814 120.154 25.066C120.62 25.3087 120.984 25.6773 121.246 26.172C121.516 26.6667 121.652 27.2687 121.652 27.978V32.5H120.392V28.16C120.392 27.3947 120.2 26.8113 119.818 26.41C119.435 25.9993 118.912 25.794 118.25 25.794C117.578 25.794 117.041 26.004 116.64 26.424C116.248 26.844 116.052 27.4553 116.052 28.258V32.5H114.778V22.14H116.052V25.92C116.304 25.528 116.649 25.2247 117.088 25.01C117.536 24.7953 118.035 24.688 118.586 24.688ZM124.391 23.582C124.148 23.582 123.943 23.498 123.775 23.33C123.607 23.162 123.523 22.9567 123.523 22.714C123.523 22.4713 123.607 22.266 123.775 22.098C123.943 21.93 124.148 21.846 124.391 21.846C124.624 21.846 124.82 21.93 124.979 22.098C125.147 22.266 125.231 22.4713 125.231 22.714C125.231 22.9567 125.147 23.162 124.979 23.33C124.82 23.498 124.624 23.582 124.391 23.582ZM125.007 24.828V32.5H123.733V24.828H125.007ZM130.916 24.688C131.849 24.688 132.605 24.9727 133.184 25.542C133.763 26.102 134.052 26.914 134.052 27.978V32.5H132.792V28.16C132.792 27.3947 132.601 26.8113 132.218 26.41C131.835 25.9993 131.313 25.794 130.65 25.794C129.978 25.794 129.441 26.004 129.04 26.424C128.648 26.844 128.452 27.4553 128.452 28.258V32.5H127.178V24.828H128.452V25.92C128.704 25.528 129.045 25.2247 129.474 25.01C129.913 24.7953 130.393 24.688 130.916 24.688ZM139.297 24.702C139.96 24.702 140.538 24.8467 141.033 25.136C141.537 25.4253 141.91 25.7893 142.153 26.228V24.828H143.441V32.668C143.441 33.368 143.292 33.9887 142.993 34.53C142.694 35.0807 142.265 35.51 141.705 35.818C141.154 36.126 140.51 36.28 139.773 36.28C138.765 36.28 137.925 36.042 137.253 35.566C136.581 35.09 136.184 34.4413 136.063 33.62H137.323C137.463 34.0867 137.752 34.46 138.191 34.74C138.63 35.0293 139.157 35.174 139.773 35.174C140.473 35.174 141.042 34.9547 141.481 34.516C141.929 34.0773 142.153 33.4613 142.153 32.668V31.058C141.901 31.506 141.528 31.8793 141.033 32.178C140.538 32.4767 139.96 32.626 139.297 32.626C138.616 32.626 137.995 32.458 137.435 32.122C136.884 31.786 136.45 31.3147 136.133 30.708C135.816 30.1013 135.657 29.4107 135.657 28.636C135.657 27.852 135.816 27.166 136.133 26.578C136.45 25.9807 136.884 25.5187 137.435 25.192C137.995 24.8653 138.616 24.702 139.297 24.702ZM142.153 28.65C142.153 28.0713 142.036 27.5673 141.803 27.138C141.57 26.7087 141.252 26.382 140.851 26.158C140.459 25.9247 140.025 25.808 139.549 25.808C139.073 25.808 138.639 25.92 138.247 26.144C137.855 26.368 137.542 26.6947 137.309 27.124C137.076 27.5533 136.959 28.0573 136.959 28.636C136.959 29.224 137.076 29.7373 137.309 30.176C137.542 30.6053 137.855 30.9367 138.247 31.17C138.639 31.394 139.073 31.506 139.549 31.506C140.025 31.506 140.459 31.394 140.851 31.17C141.252 30.9367 141.57 30.6053 141.803 30.176C142.036 29.7373 142.153 29.2287 142.153 28.65ZM148.31 32.626C147.722 32.626 147.195 32.528 146.728 32.332C146.261 32.1267 145.893 31.8467 145.622 31.492C145.351 31.128 145.202 30.7127 145.174 30.246H146.49C146.527 30.6287 146.705 30.9413 147.022 31.184C147.349 31.4267 147.773 31.548 148.296 31.548C148.781 31.548 149.164 31.4407 149.444 31.226C149.724 31.0113 149.864 30.7407 149.864 30.414C149.864 30.078 149.715 29.8307 149.416 29.672C149.117 29.504 148.655 29.3407 148.03 29.182C147.461 29.0327 146.994 28.8833 146.63 28.734C146.275 28.5753 145.967 28.3467 145.706 28.048C145.454 27.74 145.328 27.3387 145.328 26.844C145.328 26.452 145.445 26.0927 145.678 25.766C145.911 25.4393 146.243 25.1827 146.672 24.996C147.101 24.8 147.591 24.702 148.142 24.702C148.991 24.702 149.677 24.9167 150.2 25.346C150.723 25.7753 151.003 26.3633 151.04 27.11H149.766C149.738 26.7087 149.575 26.3867 149.276 26.144C148.987 25.9013 148.595 25.78 148.1 25.78C147.643 25.78 147.279 25.878 147.008 26.074C146.737 26.27 146.602 26.5267 146.602 26.844C146.602 27.096 146.681 27.306 146.84 27.474C147.008 27.6327 147.213 27.7633 147.456 27.866C147.708 27.9593 148.053 28.0667 148.492 28.188C149.043 28.3373 149.491 28.4867 149.836 28.636C150.181 28.776 150.475 28.9907 150.718 29.28C150.97 29.5693 151.101 29.9473 151.11 30.414C151.11 30.834 150.993 31.212 150.76 31.548C150.527 31.884 150.195 32.15 149.766 32.346C149.346 32.5327 148.861 32.626 148.31 32.626Z" fill="#292D32"/>
<rect x="306.789" width="132" height="56" rx="20" fill="#EDA415"/>
<path d="M352.129 32.598C351.448 32.598 350.832 32.4813 350.281 32.248C349.74 32.0147 349.311 31.6787 348.993 31.24C348.676 30.8013 348.513 30.2833 348.503 29.686H350.603C350.631 30.0873 350.771 30.4047 351.023 30.638C351.285 30.8713 351.639 30.988 352.087 30.988C352.545 30.988 352.904 30.8807 353.165 30.666C353.427 30.442 353.557 30.1527 353.557 29.798C353.557 29.5087 353.469 29.2707 353.291 29.084C353.114 28.8973 352.89 28.7527 352.619 28.65C352.358 28.538 351.994 28.4167 351.527 28.286C350.893 28.0993 350.375 27.9173 349.973 27.74C349.581 27.5533 349.241 27.278 348.951 26.914C348.671 26.5407 348.531 26.046 348.531 25.43C348.531 24.8513 348.676 24.3473 348.965 23.918C349.255 23.4887 349.661 23.162 350.183 22.938C350.706 22.7047 351.303 22.588 351.975 22.588C352.983 22.588 353.8 22.8353 354.425 23.33C355.06 23.8153 355.41 24.4967 355.475 25.374H353.319C353.301 25.038 353.156 24.7627 352.885 24.548C352.624 24.324 352.274 24.212 351.835 24.212C351.453 24.212 351.145 24.31 350.911 24.506C350.687 24.702 350.575 24.9867 350.575 25.36C350.575 25.6213 350.659 25.8407 350.827 26.018C351.005 26.186 351.219 26.326 351.471 26.438C351.733 26.5407 352.097 26.662 352.563 26.802C353.198 26.9887 353.716 27.1753 354.117 27.362C354.519 27.5487 354.864 27.8287 355.153 28.202C355.443 28.5753 355.587 29.0653 355.587 29.672C355.587 30.1947 355.452 30.68 355.181 31.128C354.911 31.576 354.514 31.9353 353.991 32.206C353.469 32.4673 352.848 32.598 352.129 32.598ZM364.497 28.454C364.497 28.734 364.478 28.986 364.441 29.21H358.771C358.817 29.77 359.013 30.2087 359.359 30.526C359.704 30.8433 360.129 31.002 360.633 31.002C361.361 31.002 361.879 30.6893 362.187 30.064H364.301C364.077 30.8107 363.647 31.4267 363.013 31.912C362.378 32.388 361.599 32.626 360.675 32.626C359.928 32.626 359.256 32.4627 358.659 32.136C358.071 31.8 357.609 31.3287 357.273 30.722C356.946 30.1153 356.783 29.4153 356.783 28.622C356.783 27.8193 356.946 27.1147 357.273 26.508C357.599 25.9013 358.057 25.4347 358.645 25.108C359.233 24.7813 359.909 24.618 360.675 24.618C361.412 24.618 362.07 24.7767 362.649 25.094C363.237 25.4113 363.689 25.864 364.007 26.452C364.333 27.0307 364.497 27.698 364.497 28.454ZM362.467 27.894C362.457 27.39 362.275 26.9887 361.921 26.69C361.566 26.382 361.132 26.228 360.619 26.228C360.133 26.228 359.723 26.3773 359.387 26.676C359.06 26.9653 358.859 27.3713 358.785 27.894H362.467ZM365.423 28.594C365.423 27.81 365.577 27.1147 365.885 26.508C366.203 25.9013 366.627 25.4347 367.159 25.108C367.701 24.7813 368.303 24.618 368.965 24.618C369.544 24.618 370.048 24.7347 370.477 24.968C370.916 25.2013 371.266 25.4953 371.527 25.85V24.744H373.501V32.5H371.527V31.366C371.275 31.73 370.925 32.0333 370.477 32.276C370.039 32.5093 369.53 32.626 368.951 32.626C368.298 32.626 367.701 32.458 367.159 32.122C366.627 31.786 366.203 31.3147 365.885 30.708C365.577 30.092 365.423 29.3873 365.423 28.594ZM371.527 28.622C371.527 28.146 371.434 27.74 371.247 27.404C371.061 27.0587 370.809 26.7973 370.491 26.62C370.174 26.4333 369.833 26.34 369.469 26.34C369.105 26.34 368.769 26.4287 368.461 26.606C368.153 26.7833 367.901 27.0447 367.705 27.39C367.519 27.726 367.425 28.1273 367.425 28.594C367.425 29.0607 367.519 29.4713 367.705 29.826C367.901 30.1713 368.153 30.4373 368.461 30.624C368.779 30.8107 369.115 30.904 369.469 30.904C369.833 30.904 370.174 30.8153 370.491 30.638C370.809 30.4513 371.061 30.19 371.247 29.854C371.434 29.5087 371.527 29.098 371.527 28.622ZM377.376 25.948C377.628 25.5373 377.954 25.2153 378.356 24.982C378.766 24.7487 379.233 24.632 379.756 24.632V26.69H379.238C378.622 26.69 378.155 26.8347 377.838 27.124C377.53 27.4133 377.376 27.9173 377.376 28.636V32.5H375.416V24.744H377.376V25.948ZM380.572 28.622C380.572 27.8193 380.735 27.1193 381.062 26.522C381.388 25.9153 381.841 25.4487 382.42 25.122C382.998 24.786 383.661 24.618 384.408 24.618C385.369 24.618 386.162 24.8607 386.788 25.346C387.422 25.822 387.847 26.494 388.062 27.362H385.948C385.836 27.026 385.644 26.7647 385.374 26.578C385.112 26.382 384.786 26.284 384.394 26.284C383.834 26.284 383.39 26.4893 383.064 26.9C382.737 27.3013 382.574 27.8753 382.574 28.622C382.574 29.3593 382.737 29.9333 383.064 30.344C383.39 30.7453 383.834 30.946 384.394 30.946C385.187 30.946 385.705 30.5913 385.948 29.882H388.062C387.847 30.722 387.422 31.3893 386.788 31.884C386.153 32.3787 385.36 32.626 384.408 32.626C383.661 32.626 382.998 32.4627 382.42 32.136C381.841 31.8 381.388 31.3333 381.062 30.736C380.735 30.1293 380.572 29.4247 380.572 28.622ZM393.866 24.632C394.454 24.632 394.976 24.7627 395.434 25.024C395.891 25.276 396.246 25.654 396.498 26.158C396.759 26.6527 396.89 27.25 396.89 27.95V32.5H394.93V28.216C394.93 27.6 394.776 27.1287 394.468 26.802C394.16 26.466 393.74 26.298 393.208 26.298C392.666 26.298 392.237 26.466 391.92 26.802C391.612 27.1287 391.458 27.6 391.458 28.216V32.5H389.498V22.14H391.458V25.71C391.71 25.374 392.046 25.1127 392.466 24.926C392.886 24.73 393.352 24.632 393.866 24.632Z" fill="white"/>
</svg>
