<svg width="120" height="115" viewBox="0 0 120 115" fill="none" xmlns="http://www.w3.org/2000/svg">
<rect width="120" height="114.607" rx="57.3034" fill="#EDA415"/>
<path d="M42.7955 49.4975C41.6449 49.4975 40.6094 49.2458 39.689 48.7425C38.7685 48.2247 38.0422 47.4984 37.5101 46.5636C36.9924 45.6288 36.7335 44.5501 36.7335 43.3276C36.7335 42.1052 36.9996 41.0265 37.5317 40.0917C38.0782 39.1569 38.8189 38.4378 39.7537 37.9344C40.6885 37.4166 41.7312 37.1578 42.8818 37.1578C44.0324 37.1578 45.0751 37.4166 46.0099 37.9344C46.9447 38.4378 47.6782 39.1569 48.2103 40.0917C48.7569 41.0265 49.0301 42.1052 49.0301 43.3276C49.0301 44.5501 48.7497 45.6288 48.1888 46.5636C47.6422 47.4984 46.8944 48.2247 45.9452 48.7425C45.0103 49.2458 43.9605 49.4975 42.7955 49.4975ZM42.7955 46.8656C43.342 46.8656 43.8526 46.7362 44.3272 46.4773C44.8162 46.204 45.2045 45.8014 45.4921 45.2692C45.7798 44.7371 45.9236 44.0899 45.9236 43.3276C45.9236 42.1915 45.6216 41.3214 45.0175 40.7173C44.4279 40.0989 43.7016 39.7897 42.8387 39.7897C41.9757 39.7897 41.2494 40.0989 40.6598 40.7173C40.0845 41.3214 39.7969 42.1915 39.7969 43.3276C39.7969 44.4638 40.0773 45.3411 40.6382 45.9596C41.2135 46.5636 41.9326 46.8656 42.7955 46.8656ZM57.8685 37.1793C59.2923 37.1793 60.4429 37.6324 61.3202 38.5384C62.1975 39.4301 62.6361 40.6814 62.6361 42.2921V49.3034H59.6159V42.702C59.6159 41.7528 59.3786 41.0265 58.904 40.5232C58.4294 40.0054 57.7822 39.7465 56.9624 39.7465C56.1283 39.7465 55.4667 40.0054 54.9777 40.5232C54.5031 41.0265 54.2658 41.7528 54.2658 42.702V49.3034H51.2456V37.3519H54.2658V38.8405C54.6685 38.3227 55.179 37.92 55.7975 37.6324C56.4303 37.3303 57.1206 37.1793 57.8685 37.1793ZM68.5284 33.3393V49.3034H65.5082V33.3393H68.5284ZM82.9461 37.3519L75.5466 54.9555H72.3322L74.921 49.0014L70.1317 37.3519H73.5187L76.6037 45.7007L79.7317 37.3519H82.9461ZM48.2319 76.9672C48.2319 77.7151 48.0378 78.4198 47.6494 79.0814C47.2755 79.7285 46.7146 80.2679 45.9667 80.6993C45.2333 81.1164 44.3631 81.3609 43.3564 81.4328V83.1802H41.9757V81.4112C40.5375 81.2818 39.3798 80.8503 38.5025 80.1169C37.6252 79.369 37.1721 78.3623 37.1434 77.0966H40.3793C40.4656 78.1321 40.9978 78.7578 41.9757 78.9735V74.853C40.9402 74.5942 40.1061 74.3353 39.4733 74.0764C38.8404 73.8175 38.2939 73.4005 37.8337 72.8252C37.3735 72.2499 37.1434 71.4661 37.1434 70.4737C37.1434 69.2225 37.5892 68.2014 38.4809 67.4103C39.387 66.6193 40.5519 66.1663 41.9757 66.0512V64.3038H43.3564V66.0512C44.7371 66.1663 45.8373 66.5834 46.6571 67.3025C47.4912 68.0216 47.9587 69.0139 48.0593 70.2796H44.8018C44.7587 69.8625 44.6076 69.5029 44.3488 69.2009C44.1043 68.8845 43.7735 68.6616 43.3564 68.5321V72.6094C44.4351 72.8827 45.2836 73.1488 45.902 73.4076C46.5348 73.6521 47.0813 74.062 47.5416 74.6373C48.0018 75.1982 48.2319 75.9748 48.2319 76.9672ZM40.293 70.3227C40.293 70.7973 40.4369 71.1856 40.7245 71.4876C41.0121 71.7753 41.4292 72.0126 41.9757 72.1996V68.4674C41.458 68.5393 41.0481 68.7335 40.7461 69.0499C40.444 69.3663 40.293 69.7906 40.293 70.3227ZM43.3564 79.0166C43.9029 78.916 44.3272 78.693 44.6292 78.3479C44.9456 78.0027 45.1038 77.5856 45.1038 77.0966C45.1038 76.622 44.9528 76.2409 44.6508 75.9533C44.3488 75.6656 43.9173 75.4283 43.3564 75.2414V79.0166ZM53.8904 72.9762C52.4522 72.2283 51.7331 71.0706 51.7331 69.5029C51.7331 68.7263 51.9273 68.0216 52.3156 67.3888C52.7183 66.7416 53.3152 66.231 54.1062 65.8571C54.9116 65.4688 55.8896 65.2746 57.0401 65.2746C58.1907 65.2746 59.1615 65.4688 59.9525 65.8571C60.7579 66.231 61.3547 66.7416 61.743 67.3888C62.1457 68.0216 62.3471 68.7263 62.3471 69.5029C62.3471 70.2939 62.1529 70.9915 61.7646 71.5955C61.3763 72.1852 60.8585 72.6454 60.2113 72.9762C61.0024 73.3214 61.6208 73.8247 62.0666 74.4863C62.5125 75.1479 62.7354 75.9317 62.7354 76.8378C62.7354 77.8157 62.4837 78.6715 61.9803 79.4049C61.4913 80.124 60.8154 80.6778 59.9525 81.0661C59.0896 81.4544 58.1188 81.6485 57.0401 81.6485C55.9615 81.6485 54.9907 81.4544 54.1278 81.0661C53.2792 80.6778 52.6033 80.124 52.0999 79.4049C51.6109 78.6715 51.3664 77.8157 51.3664 76.8378C51.3664 75.9317 51.5893 75.1479 52.0352 74.4863C52.481 73.8103 53.0994 73.307 53.8904 72.9762ZM59.4131 69.9344C59.4131 69.2297 59.1974 68.6831 58.766 68.2948C58.3489 67.9065 57.7736 67.7124 57.0401 67.7124C56.321 67.7124 55.7457 67.9065 55.3143 68.2948C54.8972 68.6831 54.6887 69.2369 54.6887 69.956C54.6887 70.6031 54.9044 71.1209 55.3358 71.5092C55.7817 71.8975 56.3498 72.0917 57.0401 72.0917C57.7304 72.0917 58.2985 71.8975 58.7444 71.5092C59.1902 71.1065 59.4131 70.5816 59.4131 69.9344ZM57.0401 74.2921C56.2203 74.2921 55.5516 74.5007 55.0338 74.9178C54.5304 75.3348 54.2788 75.9317 54.2788 76.7083C54.2788 77.4274 54.5233 78.0171 55.0122 78.4773C55.5156 78.9232 56.1916 79.1461 57.0401 79.1461C57.8887 79.1461 58.5574 78.916 59.0464 78.4557C59.5354 77.9955 59.7799 77.413 59.7799 76.7083C59.7799 75.9461 59.5282 75.3564 59.0248 74.9393C58.5215 74.5079 57.8599 74.2921 57.0401 74.2921ZM68.6157 76.8809C68.7308 77.5137 68.9897 78.0027 69.3924 78.3479C69.8094 78.6787 70.3631 78.844 71.0535 78.844C71.9452 78.844 72.5924 78.4773 72.9951 77.7438C73.3978 76.996 73.5991 75.7447 73.5991 73.9901C73.2683 74.4503 72.8009 74.8099 72.1969 75.0688C71.6072 75.3276 70.9672 75.4571 70.2769 75.4571C69.3564 75.4571 68.5222 75.2701 67.7744 74.8962C67.0409 74.5079 66.4584 73.9398 66.027 73.1919C65.5955 72.4297 65.3798 71.5092 65.3798 70.4306C65.3798 68.8342 65.8544 67.5685 66.8036 66.6337C67.7528 65.6845 69.0472 65.2099 70.6867 65.2099C72.729 65.2099 74.1672 65.8643 75.0013 67.173C75.8499 68.4818 76.2742 70.4521 76.2742 73.084C76.2742 74.9537 76.1088 76.4854 75.778 77.6791C75.4616 78.8728 74.9079 79.7789 74.1169 80.3973C73.3402 81.0157 72.276 81.3249 70.924 81.3249C69.8598 81.3249 68.9537 81.1236 68.2058 80.7209C67.458 80.3038 66.8827 79.7645 66.48 79.1029C66.0917 78.427 65.8688 77.6863 65.8112 76.8809H68.6157ZM70.9025 72.9978C71.6503 72.9978 72.24 72.7676 72.6715 72.3074C73.1029 71.8472 73.3187 71.2288 73.3187 70.4521C73.3187 69.6036 73.0885 68.9492 72.6283 68.489C72.1825 68.0144 71.5712 67.7771 70.7946 67.7771C70.018 67.7771 69.3996 68.0216 68.9393 68.5106C68.4935 68.9852 68.2706 69.618 68.2706 70.409C68.2706 71.1712 68.4863 71.7969 68.9178 72.2858C69.3636 72.7605 70.0252 72.9978 70.9025 72.9978Z" fill="white"/>
</svg>
