<svg width="147" height="53" viewBox="0 0 147 53" fill="none" xmlns="http://www.w3.org/2000/svg">
<g filter="url(#filter0_d_3_47)">
<path d="M35.1061 22.2834C35.1061 21.1695 35.3627 20.1704 35.8759 19.2858C36.4001 18.4013 37.1044 17.7134 37.9889 17.222C38.8844 16.7196 39.8617 16.4685 40.921 16.4685C42.1331 16.4685 43.2087 16.7688 44.1478 17.3694C45.0979 17.9591 45.7858 18.7999 46.2117 19.8919H43.9676C43.6728 19.2913 43.2633 18.8436 42.7391 18.5487C42.215 18.2539 41.6089 18.1065 40.921 18.1065C40.1675 18.1065 39.4959 18.2757 38.9062 18.6143C38.3165 18.9528 37.8524 19.4387 37.5139 20.0721C37.1863 20.7054 37.0225 21.4425 37.0225 22.2834C37.0225 23.1242 37.1863 23.8613 37.5139 24.4947C37.8524 25.128 38.3165 25.6194 38.9062 25.9689C39.4959 26.3074 40.1675 26.4767 40.921 26.4767C41.6089 26.4767 42.215 26.3292 42.7391 26.0344C43.2633 25.7396 43.6728 25.2918 43.9676 24.6912H46.2117C45.7858 25.7832 45.0979 26.6241 44.1478 27.2138C43.2087 27.8034 42.1331 28.0983 40.921 28.0983C39.8508 28.0983 38.8735 27.8526 37.9889 27.3612C37.1044 26.8589 36.4001 26.1654 35.8759 25.2809C35.3627 24.3964 35.1061 23.3972 35.1061 22.2834ZM47.775 23.4464C47.775 22.54 47.9606 21.7374 48.3319 21.0385C48.7141 20.3396 49.2273 19.7991 49.8716 19.4169C50.5268 19.0238 51.2475 18.8272 52.0338 18.8272C52.7436 18.8272 53.3605 18.9692 53.8847 19.2531C54.4198 19.5261 54.8457 19.8701 55.1623 20.285V18.9746H57.046V28H55.1623V26.6568C54.8457 27.0827 54.4143 27.4376 53.8683 27.7215C53.3223 28.0055 52.6999 28.1474 52.001 28.1474C51.2257 28.1474 50.5159 27.9509 49.8716 27.5577C49.2273 27.1537 48.7141 26.5968 48.3319 25.887C47.9606 25.1663 47.775 24.3527 47.775 23.4464ZM55.1623 23.4791C55.1623 22.8567 55.0313 22.3161 54.7692 21.8575C54.5181 21.3989 54.185 21.0494 53.77 20.8092C53.3551 20.5689 52.9074 20.4488 52.4269 20.4488C51.9464 20.4488 51.4987 20.5689 51.0837 20.8092C50.6688 21.0385 50.3302 21.3825 50.0682 21.8411C49.817 22.2888 49.6914 22.8239 49.6914 23.4464C49.6914 24.0688 49.817 24.6148 50.0682 25.0844C50.3302 25.5539 50.6688 25.9143 51.0837 26.1654C51.5096 26.4057 51.9573 26.5258 52.4269 26.5258C52.9074 26.5258 53.3551 26.4057 53.77 26.1654C54.185 25.9252 54.5181 25.5758 54.7692 25.1171C55.0313 24.6476 55.1623 24.1016 55.1623 23.4791ZM70.4242 18.8272C71.134 18.8272 71.7673 18.9746 72.3242 19.2695C72.8921 19.5643 73.3343 20.0011 73.651 20.5799C73.9786 21.1586 74.1424 21.8575 74.1424 22.6765V28H72.2915V22.955C72.2915 22.1469 72.0895 21.5299 71.6854 21.104C71.2814 20.6672 70.7299 20.4488 70.031 20.4488C69.3322 20.4488 68.7752 20.6672 68.3603 21.104C67.9562 21.5299 67.7542 22.1469 67.7542 22.955V28H65.9033V22.955C65.9033 22.1469 65.7013 21.5299 65.2972 21.104C64.8932 20.6672 64.3417 20.4488 63.6428 20.4488C62.944 20.4488 62.387 20.6672 61.9721 21.104C61.568 21.5299 61.366 22.1469 61.366 22.955V28H59.4987V18.9746H61.366V20.0066C61.6718 19.6353 62.0594 19.3459 62.529 19.1384C62.9986 18.9309 63.5009 18.8272 64.036 18.8272C64.7567 18.8272 65.401 18.9801 65.9688 19.2858C66.5366 19.5916 66.9734 20.0339 67.2792 20.6126C67.5522 20.0666 67.9781 19.6353 68.5568 19.3186C69.1356 18.991 69.758 18.8272 70.4242 18.8272ZM84.7904 23.2662C84.7904 23.6047 84.7686 23.9105 84.7249 24.1835H77.8289C77.8835 24.9042 78.1511 25.4829 78.6316 25.9197C79.112 26.3565 79.7017 26.5749 80.4006 26.5749C81.4052 26.5749 82.115 26.1545 82.53 25.3137H84.5447C84.2717 26.1436 83.7749 26.8261 83.0542 27.3612C82.3444 27.8853 81.4598 28.1474 80.4006 28.1474C79.5379 28.1474 78.7626 27.9563 78.0746 27.5741C77.3976 27.181 76.8625 26.635 76.4694 25.9361C76.0872 25.2263 75.8961 24.4073 75.8961 23.4791C75.8961 22.5509 76.0817 21.7374 76.453 21.0385C76.8352 20.3287 77.3648 19.7827 78.0419 19.4005C78.7298 19.0183 79.5161 18.8272 80.4006 18.8272C81.2524 18.8272 82.0113 19.0128 82.6774 19.3841C83.3435 19.7554 83.8622 20.2796 84.2335 20.9566C84.6048 21.6227 84.7904 22.3926 84.7904 23.2662ZM82.8412 22.6765C82.8303 21.9885 82.5846 21.4371 82.1041 21.0221C81.6236 20.6072 81.0285 20.3997 80.3187 20.3997C79.6744 20.3997 79.123 20.6072 78.6643 21.0221C78.2057 21.4262 77.9327 21.9776 77.8453 22.6765H82.8412ZM88.4954 20.285C88.7684 19.8264 89.1287 19.4715 89.5765 19.2203C90.0351 18.9582 90.5756 18.8272 91.1981 18.8272V20.76H90.7231C89.9914 20.76 89.4345 20.9457 89.0523 21.317C88.681 21.6882 88.4954 22.3325 88.4954 23.2498V28H86.6281V18.9746H88.4954V20.285ZM92.2921 23.4464C92.2921 22.54 92.4777 21.7374 92.849 21.0385C93.2312 20.3396 93.7445 19.7991 94.3887 19.4169C95.0439 19.0238 95.7647 18.8272 96.5509 18.8272C97.2607 18.8272 97.8777 18.9692 98.4018 19.2531C98.9369 19.5261 99.3628 19.8701 99.6795 20.285V18.9746H101.563V28H99.6795V26.6568C99.3628 27.0827 98.9315 27.4376 98.3855 27.7215C97.8395 28.0055 97.217 28.1474 96.5181 28.1474C95.7428 28.1474 95.033 27.9509 94.3887 27.5577C93.7445 27.1537 93.2312 26.5968 92.849 25.887C92.4777 25.1663 92.2921 24.3527 92.2921 23.4464ZM99.6795 23.4791C99.6795 22.8567 99.5484 22.3161 99.2864 21.8575C99.0352 21.3989 98.7021 21.0494 98.2872 20.8092C97.8722 20.5689 97.4245 20.4488 96.944 20.4488C96.4635 20.4488 96.0158 20.5689 95.6009 20.8092C95.1859 21.0385 94.8474 21.3825 94.5853 21.8411C94.3341 22.2888 94.2086 22.8239 94.2086 23.4464C94.2086 24.0688 94.3341 24.6148 94.5853 25.0844C94.8474 25.5539 95.1859 25.9143 95.6009 26.1654C96.0267 26.4057 96.4745 26.5258 96.944 26.5258C97.4245 26.5258 97.8722 26.4057 98.2872 26.1654C98.7021 25.9252 99.0352 25.5758 99.2864 25.1171C99.5484 24.6476 99.6795 24.1016 99.6795 23.4791ZM107.292 28.1474C106.582 28.1474 105.943 28.0218 105.375 27.7707C104.818 27.5086 104.376 27.1592 104.049 26.7224C103.721 26.2746 103.546 25.7778 103.524 25.2318H105.457C105.49 25.614 105.67 25.9361 105.998 26.1982C106.336 26.4494 106.757 26.5749 107.259 26.5749C107.783 26.5749 108.187 26.4767 108.471 26.2801C108.766 26.0726 108.913 25.8105 108.913 25.4939C108.913 25.1553 108.75 24.9042 108.422 24.7404C108.105 24.5766 107.598 24.3964 106.899 24.1998C106.222 24.0142 105.67 23.834 105.244 23.6593C104.818 23.4846 104.447 23.217 104.13 22.8567C103.825 22.4963 103.672 22.0213 103.672 21.4316C103.672 20.9511 103.814 20.5143 104.098 20.1212C104.382 19.7172 104.786 19.4005 105.31 19.1712C105.845 18.9419 106.456 18.8272 107.144 18.8272C108.171 18.8272 108.995 19.0893 109.618 19.6134C110.251 20.1267 110.59 20.831 110.633 21.7265H108.766C108.733 21.3224 108.569 21.0003 108.275 20.76C107.98 20.5198 107.581 20.3997 107.079 20.3997C106.587 20.3997 106.211 20.4925 105.949 20.6781C105.687 20.8638 105.556 21.1095 105.556 21.4152C105.556 21.6555 105.643 21.8575 105.818 22.0213C105.992 22.1851 106.205 22.3161 106.456 22.4144C106.708 22.5018 107.079 22.6164 107.57 22.7584C108.225 22.9331 108.761 23.1133 109.176 23.2989C109.601 23.4737 109.967 23.7357 110.273 24.0852C110.579 24.4346 110.737 24.8987 110.748 25.4775C110.748 25.9907 110.606 26.4494 110.322 26.8534C110.038 27.2574 109.634 27.5741 109.11 27.8034C108.597 28.0328 107.991 28.1474 107.292 28.1474Z" fill="#1B5A7D"/>
<rect x="4.5" y="0.5" width="138" height="44" rx="19.5" stroke="#003F62" shape-rendering="crispEdges"/>
</g>
<defs>
<filter id="filter0_d_3_47" x="0" y="0" width="147" height="53" filterUnits="userSpaceOnUse" color-interpolation-filters="sRGB">
<feFlood flood-opacity="0" result="BackgroundImageFix"/>
<feColorMatrix in="SourceAlpha" type="matrix" values="0 0 0 0 0 0 0 0 0 0 0 0 0 0 0 0 0 0 127 0" result="hardAlpha"/>
<feOffset dy="4"/>
<feGaussianBlur stdDeviation="2"/>
<feComposite in2="hardAlpha" operator="out"/>
<feColorMatrix type="matrix" values="0 0 0 0 0 0 0 0 0 0 0 0 0 0 0 0 0 0 0.25 0"/>
<feBlend mode="normal" in2="BackgroundImageFix" result="effect1_dropShadow_3_47"/>
<feBlend mode="normal" in="SourceGraphic" in2="effect1_dropShadow_3_47" result="shape"/>
</filter>
</defs>
</svg>
