<svg width="139" height="45" viewBox="0 0 139 45" fill="none" xmlns="http://www.w3.org/2000/svg">
<path d="M39.5958 26.493H43.4451V28H37.7285V16.6159H39.5958V26.493ZM44.3843 23.4464C44.3843 22.54 44.5699 21.7374 44.9412 21.0385C45.3234 20.3396 45.8366 19.7991 46.4809 19.4169C47.1361 19.0238 47.8568 18.8272 48.6431 18.8272C49.3529 18.8272 49.9699 18.9692 50.494 19.2531C51.0291 19.5261 51.455 19.8701 51.7717 20.285V18.9746H53.6554V28H51.7717V26.6568C51.455 27.0827 51.0236 27.4376 50.4776 27.7215C49.9316 28.0055 49.3092 28.1474 48.6103 28.1474C47.835 28.1474 47.1252 27.9509 46.4809 27.5577C45.8366 27.1537 45.3234 26.5968 44.9412 25.887C44.5699 25.1663 44.3843 24.3527 44.3843 23.4464ZM51.7717 23.4791C51.7717 22.8567 51.6406 22.3161 51.3785 21.8575C51.1274 21.3989 50.7943 21.0494 50.3794 20.8092C49.9644 20.5689 49.5167 20.4488 49.0362 20.4488C48.5557 20.4488 48.108 20.5689 47.693 20.8092C47.2781 21.0385 46.9396 21.3825 46.6775 21.8411C46.4263 22.2888 46.3007 22.8239 46.3007 23.4464C46.3007 24.0688 46.4263 24.6148 46.6775 25.0844C46.9396 25.5539 47.2781 25.9143 47.693 26.1654C48.1189 26.4057 48.5666 26.5258 49.0362 26.5258C49.5167 26.5258 49.9644 26.4057 50.3794 26.1654C50.7943 25.9252 51.1274 25.5758 51.3785 25.1171C51.6406 24.6476 51.7717 24.1016 51.7717 23.4791ZM57.9753 20.3014C58.292 19.8864 58.7234 19.537 59.2694 19.2531C59.8154 18.9692 60.4323 18.8272 61.1203 18.8272C61.9065 18.8272 62.6218 19.0238 63.2661 19.4169C63.9213 19.7991 64.4345 20.3396 64.8058 21.0385C65.1771 21.7374 65.3627 22.54 65.3627 23.4464C65.3627 24.3527 65.1771 25.1663 64.8058 25.887C64.4345 26.5968 63.9213 27.1537 63.2661 27.5577C62.6218 27.9509 61.9065 28.1474 61.1203 28.1474C60.4323 28.1474 59.8208 28.0109 59.2857 27.7379C58.7507 27.454 58.3139 27.1046 57.9753 26.6896V32.2916H56.108V18.9746H57.9753V20.3014ZM63.4626 23.4464C63.4626 22.8239 63.3316 22.2888 63.0695 21.8411C62.8184 21.3825 62.4798 21.0385 62.054 20.8092C61.639 20.5689 61.1913 20.4488 60.7108 20.4488C60.2412 20.4488 59.7935 20.5689 59.3676 20.8092C58.9527 21.0494 58.6142 21.3989 58.3521 21.8575C58.1009 22.3161 57.9753 22.8567 57.9753 23.4791C57.9753 24.1016 58.1009 24.6476 58.3521 25.1171C58.6142 25.5758 58.9527 25.9252 59.3676 26.1654C59.7935 26.4057 60.2412 26.5258 60.7108 26.5258C61.1913 26.5258 61.639 26.4057 62.054 26.1654C62.4798 25.9143 62.8184 25.5539 63.0695 25.0844C63.3316 24.6148 63.4626 24.0688 63.4626 23.4464ZM69.3878 20.498V25.4939C69.3878 25.8324 69.4643 26.0781 69.6172 26.231C69.781 26.3729 70.054 26.4439 70.4362 26.4439H71.5828V28H70.1086C69.2677 28 68.6234 27.8034 68.1757 27.4103C67.728 27.0172 67.5041 26.3784 67.5041 25.4939V20.498H66.4394V18.9746H67.5041V16.7306H69.3878V18.9746H71.5828V20.498H69.3878ZM77.2186 28.1474C76.3669 28.1474 75.597 27.9563 74.909 27.5741C74.2211 27.181 73.6805 26.635 73.2874 25.9361C72.8943 25.2263 72.6977 24.4073 72.6977 23.4791C72.6977 22.5618 72.8998 21.7483 73.3038 21.0385C73.7078 20.3287 74.2593 19.7827 74.9582 19.4005C75.6571 19.0183 76.4378 18.8272 77.3005 18.8272C78.1632 18.8272 78.944 19.0183 79.6429 19.4005C80.3417 19.7827 80.8932 20.3287 81.2972 21.0385C81.7013 21.7483 81.9033 22.5618 81.9033 23.4791C81.9033 24.3964 81.6958 25.2099 81.2809 25.9197C80.8659 26.6295 80.2981 27.181 79.5773 27.5741C78.8675 27.9563 78.0813 28.1474 77.2186 28.1474ZM77.2186 26.5258C77.6991 26.5258 78.1468 26.4111 78.5618 26.1818C78.9877 25.9525 79.3316 25.6085 79.5937 25.1499C79.8558 24.6912 79.9868 24.1343 79.9868 23.4791C79.9868 22.8239 79.8613 22.2725 79.6101 21.8247C79.3589 21.3661 79.0259 21.0221 78.6109 20.7928C78.196 20.5635 77.7482 20.4488 77.2678 20.4488C76.7873 20.4488 76.3396 20.5635 75.9246 20.7928C75.5206 21.0221 75.1984 21.3661 74.9582 21.8247C74.7179 22.2725 74.5978 22.8239 74.5978 23.4791C74.5978 24.451 74.8435 25.2045 75.3349 25.7396C75.8372 26.2637 76.4651 26.5258 77.2186 26.5258ZM85.6166 20.3014C85.9333 19.8864 86.3646 19.537 86.9106 19.2531C87.4566 18.9692 88.0736 18.8272 88.7615 18.8272C89.5478 18.8272 90.263 19.0238 90.9073 19.4169C91.5625 19.7991 92.0758 20.3396 92.447 21.0385C92.8183 21.7374 93.004 22.54 93.004 23.4464C93.004 24.3527 92.8183 25.1663 92.447 25.887C92.0758 26.5968 91.5625 27.1537 90.9073 27.5577C90.263 27.9509 89.5478 28.1474 88.7615 28.1474C88.0736 28.1474 87.4621 28.0109 86.927 27.7379C86.3919 27.454 85.9551 27.1046 85.6166 26.6896V32.2916H83.7493V18.9746H85.6166V20.3014ZM91.1039 23.4464C91.1039 22.8239 90.9728 22.2888 90.7108 21.8411C90.4596 21.3825 90.1211 21.0385 89.6952 20.8092C89.2802 20.5689 88.8325 20.4488 88.352 20.4488C87.8825 20.4488 87.4348 20.5689 87.0089 20.8092C86.5939 21.0494 86.2554 21.3989 85.9933 21.8575C85.7422 22.3161 85.6166 22.8567 85.6166 23.4791C85.6166 24.1016 85.7422 24.6476 85.9933 25.1171C86.2554 25.5758 86.5939 25.9252 87.0089 26.1654C87.4348 26.4057 87.8825 26.5258 88.352 26.5258C88.8325 26.5258 89.2802 26.4057 89.6952 26.1654C90.1211 25.9143 90.4596 25.5539 90.7108 25.0844C90.9728 24.6148 91.1039 24.0688 91.1039 23.4464ZM98.1265 28.1474C97.4167 28.1474 96.7779 28.0218 96.2101 27.7707C95.6532 27.5086 95.2109 27.1592 94.8833 26.7224C94.5557 26.2746 94.381 25.7778 94.3591 25.2318H96.292C96.3247 25.614 96.5049 25.9361 96.8325 26.1982C97.171 26.4494 97.5915 26.5749 98.0938 26.5749C98.6179 26.5749 99.022 26.4767 99.3059 26.2801C99.6007 26.0726 99.7482 25.8105 99.7482 25.4939C99.7482 25.1553 99.5844 24.9042 99.2568 24.7404C98.9401 24.5766 98.4323 24.3964 97.7334 24.1998C97.0564 24.0142 96.5049 23.834 96.079 23.6593C95.6532 23.4846 95.2819 23.217 94.9652 22.8567C94.6594 22.4963 94.5066 22.0213 94.5066 21.4316C94.5066 20.9511 94.6485 20.5143 94.9324 20.1212C95.2164 19.7172 95.6204 19.4005 96.1446 19.1712C96.6796 18.9419 97.2912 18.8272 97.9791 18.8272C99.0056 18.8272 99.8301 19.0893 100.453 19.6134C101.086 20.1267 101.424 20.831 101.468 21.7265H99.6007C99.568 21.3224 99.4042 21.0003 99.1093 20.76C98.8145 20.5198 98.4159 20.3997 97.9136 20.3997C97.4222 20.3997 97.0455 20.4925 96.7834 20.6781C96.5213 20.8638 96.3903 21.1095 96.3903 21.4152C96.3903 21.6555 96.4776 21.8575 96.6523 22.0213C96.8271 22.1851 97.04 22.3161 97.2912 22.4144C97.5423 22.5018 97.9136 22.6164 98.405 22.7584C99.0602 22.9331 99.5953 23.1133 100.01 23.2989C100.436 23.4737 100.802 23.7357 101.108 24.0852C101.413 24.4346 101.572 24.8987 101.583 25.4775C101.583 25.9907 101.441 26.4494 101.157 26.8534C100.873 27.2574 100.469 27.5741 99.9447 27.8034C99.4315 28.0328 98.8254 28.1474 98.1265 28.1474Z" fill="#1B5A7D"/>
<rect x="0.5" y="0.5" width="138" height="44" rx="19.5" stroke="#B5B5B5"/>
</svg>
