<svg width="118" height="16" viewBox="0 0 118 16" fill="none" xmlns="http://www.w3.org/2000/svg">
<path d="M8.65318 1.96841L9.95145 4.56495C10.1285 4.91902 10.6006 5.2731 10.994 5.33211L13.3447 5.72553C14.8495 5.98125 15.2035 7.06314 14.1216 8.14503L12.2923 9.98424C11.9874 10.2891 11.8103 10.8891 11.9087 11.3219L12.43 13.5938C12.8431 15.3839 11.889 16.0822 10.3055 15.1478L8.1024 13.8397C7.69915 13.6037 7.05002 13.6037 6.64677 13.8397L4.43381 15.138C2.85031 16.0723 1.89628 15.374 2.30937 13.584L2.83064 11.312C2.92899 10.8891 2.75196 10.2891 2.44706 9.97441L0.627517 8.15486C-0.454374 7.07297 -0.100301 5.98125 1.40451 5.73536L3.75517 5.34195C4.14858 5.2731 4.62068 4.92886 4.79772 4.57479L6.09598 1.97825C6.7943 0.561954 7.95487 0.561954 8.65318 1.96841Z" fill="#ACACAC"/>
<path d="M34.2212 1.96841L35.5195 4.56495C35.6965 4.91902 36.1686 5.2731 36.5621 5.33211L38.9127 5.72553C40.4175 5.98125 40.7716 7.06314 39.6897 8.14503L37.8603 9.98424C37.5554 10.2891 37.3784 10.8891 37.4767 11.3219L37.998 13.5938C38.4111 15.3839 37.4571 16.0822 35.8736 15.1478L33.6705 13.8397C33.2672 13.6037 32.6181 13.6037 32.2148 13.8397L30.0019 15.138C28.4184 16.0723 27.4643 15.374 27.8774 13.584L28.3987 11.312C28.497 10.8891 28.32 10.2891 28.0151 9.97441L26.1956 8.15486C25.1137 7.07297 25.4678 5.98125 26.9726 5.73536L29.3232 5.34195C29.7166 5.2731 30.1887 4.92886 30.3658 4.57479L31.664 1.97825C32.3623 0.561954 33.5229 0.561954 34.2212 1.96841Z" fill="#ACACAC"/>
<path d="M59.7894 1.96841L61.0876 4.56495C61.2647 4.91902 61.7368 5.2731 62.1302 5.33211L64.4808 5.72553C65.9856 5.98125 66.3397 7.06314 65.2578 8.14503L63.4284 9.98424C63.1235 10.2891 62.9465 10.8891 63.0449 11.3219L63.5661 13.5938C63.9792 15.3839 63.0252 16.0822 61.4417 15.1478L59.2386 13.8397C58.8353 13.6037 58.1862 13.6037 57.7829 13.8397L55.57 15.138C53.9865 16.0723 53.0324 15.374 53.4455 13.584L53.9668 11.312C54.0652 10.8891 53.8881 10.2891 53.5832 9.97441L51.7637 8.15486C50.6818 7.07297 51.0359 5.98125 52.5407 5.73536L54.8913 5.34195C55.2847 5.2731 55.7568 4.92886 55.9339 4.57479L57.2322 1.97825C57.9305 0.561954 59.091 0.561954 59.7894 1.96841Z" fill="#ACACAC"/>
<path d="M85.3574 1.96841L86.6557 4.56495C86.8327 4.91902 87.3048 5.2731 87.6982 5.33211L90.0489 5.72553C91.5537 5.98125 91.9078 7.06314 90.8259 8.14503L88.9965 9.98424C88.6916 10.2891 88.5146 10.8891 88.6129 11.3219L89.1342 13.5938C89.5473 15.3839 88.5932 16.0822 87.0097 15.1478L84.8066 13.8397C84.4034 13.6037 83.7542 13.6037 83.351 13.8397L81.138 15.138C79.5545 16.0723 78.6005 15.374 79.0136 13.584L79.5349 11.312C79.6332 10.8891 79.4562 10.2891 79.1513 9.97441L77.3317 8.15486C76.2498 7.07297 76.6039 5.98125 78.1087 5.73536L80.4594 5.34195C80.8528 5.2731 81.3249 4.92886 81.5019 4.57479L82.8002 1.97825C83.4985 0.561954 84.6591 0.561954 85.3574 1.96841Z" fill="#ACACAC"/>
<path d="M110.926 1.96841L112.224 4.56495C112.401 4.91902 112.873 5.2731 113.266 5.33211L115.617 5.72553C117.122 5.98125 117.476 7.06314 116.394 8.14503L114.565 9.98424C114.26 10.2891 114.083 10.8891 114.181 11.3219L114.702 13.5938C115.115 15.3839 114.161 16.0822 112.578 15.1478L110.375 13.8397C109.971 13.6037 109.322 13.6037 108.919 13.8397L106.706 15.138C105.123 16.0723 104.169 15.374 104.582 13.584L105.103 11.312C105.201 10.8891 105.024 10.2891 104.719 9.97441L102.9 8.15486C101.818 7.07297 102.172 5.98125 103.677 5.73536L106.028 5.34195C106.421 5.2731 106.893 4.92886 107.07 4.57479L108.368 1.97825C109.067 0.561954 110.227 0.561954 110.926 1.96841Z" fill="#ACACAC"/>
</svg>
