<svg width="134" height="45" viewBox="0 0 134 45" fill="none" xmlns="http://www.w3.org/2000/svg">
<rect width="134" height="45" rx="20" fill="#EDA415"/>
<path d="M36.2834 27.0986C35.6258 27.0986 35.034 26.9859 34.508 26.7605C33.982 26.5256 33.5687 26.1969 33.2681 25.7742C32.9675 25.3515 32.8172 24.8583 32.8172 24.2947H34.5362C34.5738 24.7174 34.7382 25.065 35.0294 25.3374C35.3299 25.6098 35.7479 25.746 36.2834 25.746C36.8376 25.746 37.2697 25.6145 37.5796 25.3515C37.8896 25.0791 38.0446 24.7315 38.0446 24.3088C38.0446 23.98 37.946 23.7123 37.7487 23.5057C37.5609 23.299 37.3213 23.1393 37.0301 23.0266C36.7483 22.9139 36.3538 22.7918 35.8466 22.6603C35.2078 22.4912 34.6865 22.3221 34.2826 22.153C33.8881 21.9746 33.5499 21.7022 33.2681 21.3358C32.9863 20.9695 32.8454 20.481 32.8454 19.8705C32.8454 19.3069 32.9863 18.8137 33.2681 18.391C33.5499 17.9683 33.9444 17.6442 34.4517 17.4188C34.9589 17.1934 35.546 17.0806 36.2129 17.0806C37.1616 17.0806 37.9366 17.3202 38.5378 17.7992C39.1483 18.2689 39.4865 18.917 39.5522 19.7436H37.7769C37.7487 19.3867 37.5796 19.0814 37.2697 18.8278C36.9597 18.5742 36.5511 18.4474 36.0438 18.4474C35.5836 18.4474 35.2078 18.5648 34.9166 18.7996C34.6254 19.0345 34.4798 19.3726 34.4798 19.8141C34.4798 20.1147 34.5691 20.3636 34.7476 20.5609C34.9354 20.7487 35.1703 20.899 35.4521 21.0117C35.7339 21.1245 36.119 21.2466 36.6074 21.3781C37.2556 21.5566 37.7816 21.735 38.1855 21.9135C38.5988 22.092 38.9464 22.3691 39.2282 22.7448C39.5194 23.1112 39.665 23.6043 39.665 24.2243C39.665 24.7221 39.5288 25.1918 39.2564 25.6333C38.9933 26.0748 38.6035 26.4317 38.0869 26.7041C37.5796 26.9671 36.9785 27.0986 36.2834 27.0986ZM45.5759 19.1096C46.1677 19.1096 46.6937 19.2364 47.154 19.49C47.6237 19.7436 47.99 20.1194 48.253 20.6172C48.5254 21.1151 48.6616 21.7162 48.6616 22.4207V27H47.0695V22.6603C47.0695 21.9652 46.8957 21.4344 46.5481 21.0681C46.2006 20.6924 45.7262 20.5045 45.1251 20.5045C44.5239 20.5045 44.0448 20.6924 43.6879 21.0681C43.3403 21.4344 43.1665 21.9652 43.1665 22.6603V27H41.5603V16.5734H43.1665V20.1382C43.439 19.8094 43.7818 19.5558 44.1951 19.3773C44.6178 19.1988 45.0781 19.1096 45.5759 19.1096ZM54.078 27.1268C53.3454 27.1268 52.6831 26.9624 52.0914 26.6337C51.4996 26.2955 51.0346 25.8258 50.6964 25.2247C50.3583 24.6141 50.1892 23.9096 50.1892 23.1112C50.1892 22.3221 50.363 21.6223 50.7105 21.0117C51.0581 20.4012 51.5324 19.9315 52.1336 19.6027C52.7348 19.274 53.4064 19.1096 54.1485 19.1096C54.8906 19.1096 55.5622 19.274 56.1634 19.6027C56.7645 19.9315 57.2389 20.4012 57.5865 21.0117C57.934 21.6223 58.1078 22.3221 58.1078 23.1112C58.1078 23.9002 57.9293 24.6 57.5724 25.2106C57.2154 25.8211 56.727 26.2955 56.107 26.6337C55.4964 26.9624 54.8201 27.1268 54.078 27.1268ZM54.078 25.7319C54.4913 25.7319 54.8765 25.6333 55.2334 25.436C55.5998 25.2387 55.8957 24.9429 56.1211 24.5483C56.3465 24.1538 56.4593 23.6748 56.4593 23.1112C56.4593 22.5476 56.3512 22.0732 56.1352 21.6881C55.9191 21.2935 55.6326 20.9977 55.2757 20.8004C54.9187 20.6031 54.5336 20.5045 54.1203 20.5045C53.707 20.5045 53.3219 20.6031 52.9649 20.8004C52.6174 20.9977 52.3403 21.2935 52.1336 21.6881C51.927 22.0732 51.8236 22.5476 51.8236 23.1112C51.8236 23.9472 52.035 24.5953 52.4577 25.0556C52.8898 25.5065 53.4299 25.7319 54.078 25.7319ZM61.3019 20.3777C61.5743 20.0208 61.9454 19.7202 62.415 19.4759C62.8847 19.2317 63.4154 19.1096 64.0072 19.1096C64.6835 19.1096 65.2988 19.2787 65.853 19.6168C66.4166 19.9456 66.8581 20.4106 67.1774 21.0117C67.4968 21.6129 67.6565 22.3033 67.6565 23.083C67.6565 23.8626 67.4968 24.5624 67.1774 25.1824C66.8581 25.793 66.4166 26.272 65.853 26.6196C65.2988 26.9577 64.6835 27.1268 64.0072 27.1268C63.4154 27.1268 62.8894 27.0094 62.4291 26.7746C61.9688 26.5303 61.5931 26.2297 61.3019 25.8728V30.6916H59.6957V19.2364H61.3019V20.3777ZM66.0221 23.083C66.0221 22.5476 65.9093 22.0873 65.6839 21.7022C65.4679 21.3076 65.1767 21.0117 64.8103 20.8145C64.4534 20.6078 64.0683 20.5045 63.6549 20.5045C63.251 20.5045 62.8659 20.6078 62.4996 20.8145C62.1426 21.0211 61.8514 21.3217 61.626 21.7162C61.4099 22.1108 61.3019 22.5757 61.3019 23.1112C61.3019 23.6466 61.4099 24.1162 61.626 24.5202C61.8514 24.9147 62.1426 25.2153 62.4996 25.4219C62.8659 25.6286 63.251 25.7319 63.6549 25.7319C64.0683 25.7319 64.4534 25.6286 64.8103 25.4219C65.1767 25.2059 65.4679 24.8959 65.6839 24.492C65.9093 24.0881 66.0221 23.6184 66.0221 23.083ZM76.8221 19.1096C77.4326 19.1096 77.9774 19.2364 78.4565 19.49C78.9449 19.7436 79.3254 20.1194 79.5978 20.6172C79.8702 21.1151 80.0064 21.7162 80.0064 22.4207V27H78.4142V22.6603C78.4142 21.9652 78.2404 21.4344 77.8929 21.0681C77.5453 20.6924 77.071 20.5045 76.4698 20.5045C75.8686 20.5045 75.3896 20.6924 75.0326 21.0681C74.6851 21.4344 74.5113 21.9652 74.5113 22.6603V27H72.905V19.2364H74.5113V20.1241C74.7743 19.8047 75.1078 19.5558 75.5117 19.3773C75.925 19.1988 76.3618 19.1096 76.8221 19.1096ZM85.4228 27.1268C84.6901 27.1268 84.0279 26.9624 83.4361 26.6337C82.8443 26.2955 82.3793 25.8258 82.0412 25.2247C81.703 24.6141 81.5339 23.9096 81.5339 23.1112C81.5339 22.3221 81.7077 21.6223 82.0553 21.0117C82.4028 20.4012 82.8772 19.9315 83.4784 19.6027C84.0795 19.274 84.7512 19.1096 85.4932 19.1096C86.2353 19.1096 86.9069 19.274 87.5081 19.6027C88.1093 19.9315 88.5836 20.4012 88.9312 21.0117C89.2788 21.6223 89.4525 22.3221 89.4525 23.1112C89.4525 23.9002 89.2741 24.6 88.9171 25.2106C88.5602 25.8211 88.0717 26.2955 87.4517 26.6337C86.8412 26.9624 86.1649 27.1268 85.4228 27.1268ZM85.4228 25.7319C85.8361 25.7319 86.2212 25.6333 86.5782 25.436C86.9445 25.2387 87.2404 24.9429 87.4658 24.5483C87.6913 24.1538 87.804 23.6748 87.804 23.1112C87.804 22.5476 87.696 22.0732 87.4799 21.6881C87.2639 21.2935 86.9774 20.9977 86.6204 20.8004C86.2635 20.6031 85.8784 20.5045 85.4651 20.5045C85.0518 20.5045 84.6666 20.6031 84.3097 20.8004C83.9621 20.9977 83.685 21.2935 83.4784 21.6881C83.2717 22.0732 83.1684 22.5476 83.1684 23.1112C83.1684 23.9472 83.3797 24.5953 83.8024 25.0556C84.2345 25.5065 84.7746 25.7319 85.4228 25.7319ZM101.467 19.2364L99.0576 27H97.3668L95.8028 21.2654L94.2388 27H92.548L90.1246 19.2364H91.759L93.3793 25.4783L95.0279 19.2364H96.7046L98.2827 25.4501L99.8889 19.2364H101.467Z" fill="white"/>
</svg>
