<svg width="389" height="63" viewBox="0 0 389 63" fill="none" xmlns="http://www.w3.org/2000/svg">
<rect x="0.5" width="388" height="63" rx="20" fill="#EDA415"/>
<path d="M28.426 27.81V30.26H31.716V31.814H28.426V34.404H32.136V36H26.466V26.214H32.136V27.81H28.426ZM43.5492 28.132C44.5012 28.132 45.2665 28.426 45.8452 29.014C46.4332 29.5927 46.7272 30.4047 46.7272 31.45V36H44.7672V31.716C44.7672 31.1093 44.6132 30.6473 44.3052 30.33C43.9972 30.0033 43.5772 29.84 43.0452 29.84C42.5132 29.84 42.0885 30.0033 41.7712 30.33C41.4632 30.6473 41.3092 31.1093 41.3092 31.716V36H39.3492V31.716C39.3492 31.1093 39.1952 30.6473 38.8872 30.33C38.5792 30.0033 38.1592 29.84 37.6272 29.84C37.0858 29.84 36.6565 30.0033 36.3392 30.33C36.0312 30.6473 35.8772 31.1093 35.8772 31.716V36H33.9172V28.244H35.8772V29.182C36.1292 28.8553 36.4512 28.5987 36.8432 28.412C37.2445 28.2253 37.6832 28.132 38.1592 28.132C38.7658 28.132 39.3072 28.2627 39.7832 28.524C40.2592 28.776 40.6278 29.14 40.8892 29.616C41.1412 29.168 41.5052 28.8087 41.9812 28.538C42.4665 28.2673 42.9892 28.132 43.5492 28.132ZM48.0831 32.094C48.0831 31.31 48.2371 30.6147 48.5451 30.008C48.8624 29.4013 49.2871 28.9347 49.8191 28.608C50.3604 28.2813 50.9624 28.118 51.6251 28.118C52.2038 28.118 52.7078 28.2347 53.1371 28.468C53.5758 28.7013 53.9258 28.9953 54.1871 29.35V28.244H56.1611V36H54.1871V34.866C53.9351 35.23 53.5851 35.5333 53.1371 35.776C52.6984 36.0093 52.1898 36.126 51.6111 36.126C50.9578 36.126 50.3604 35.958 49.8191 35.622C49.2871 35.286 48.8624 34.8147 48.5451 34.208C48.2371 33.592 48.0831 32.8873 48.0831 32.094ZM54.1871 32.122C54.1871 31.646 54.0938 31.24 53.9071 30.904C53.7204 30.5587 53.4684 30.2973 53.1511 30.12C52.8338 29.9333 52.4931 29.84 52.1291 29.84C51.7651 29.84 51.4291 29.9287 51.1211 30.106C50.8131 30.2833 50.5611 30.5447 50.3651 30.89C50.1784 31.226 50.0851 31.6273 50.0851 32.094C50.0851 32.5607 50.1784 32.9713 50.3651 33.326C50.5611 33.6713 50.8131 33.9373 51.1211 34.124C51.4384 34.3107 51.7744 34.404 52.1291 34.404C52.4931 34.404 52.8338 34.3153 53.1511 34.138C53.4684 33.9513 53.7204 33.69 53.9071 33.354C54.0938 33.0087 54.1871 32.598 54.1871 32.122ZM59.0694 27.32C58.724 27.32 58.4347 27.2127 58.2014 26.998C57.9774 26.774 57.8654 26.4987 57.8654 26.172C57.8654 25.8453 57.9774 25.5747 58.2014 25.36C58.4347 25.136 58.724 25.024 59.0694 25.024C59.4147 25.024 59.6994 25.136 59.9234 25.36C60.1567 25.5747 60.2734 25.8453 60.2734 26.172C60.2734 26.4987 60.1567 26.774 59.9234 26.998C59.6994 27.2127 59.4147 27.32 59.0694 27.32ZM60.0354 28.244V36H58.0754V28.244H60.0354ZM63.9319 25.64V36H61.9719V25.64H63.9319ZM68.7003 32.094C68.7003 31.31 68.8543 30.6147 69.1623 30.008C69.4796 29.4013 69.9043 28.9347 70.4363 28.608C70.9776 28.2813 71.5796 28.118 72.2423 28.118C72.8209 28.118 73.3249 28.2347 73.7543 28.468C74.1929 28.7013 74.5429 28.9953 74.8043 29.35V28.244H76.7783V36H74.8043V34.866C74.5523 35.23 74.2023 35.5333 73.7543 35.776C73.3156 36.0093 72.8069 36.126 72.2283 36.126C71.5749 36.126 70.9776 35.958 70.4363 35.622C69.9043 35.286 69.4796 34.8147 69.1623 34.208C68.8543 33.592 68.7003 32.8873 68.7003 32.094ZM74.8043 32.122C74.8043 31.646 74.7109 31.24 74.5243 30.904C74.3376 30.5587 74.0856 30.2973 73.7683 30.12C73.4509 29.9333 73.1103 29.84 72.7463 29.84C72.3823 29.84 72.0463 29.9287 71.7383 30.106C71.4303 30.2833 71.1783 30.5447 70.9823 30.89C70.7956 31.226 70.7023 31.6273 70.7023 32.094C70.7023 32.5607 70.7956 32.9713 70.9823 33.326C71.1783 33.6713 71.4303 33.9373 71.7383 34.124C72.0556 34.3107 72.3916 34.404 72.7463 34.404C73.1103 34.404 73.4509 34.3153 73.7683 34.138C74.0856 33.9513 74.3376 33.69 74.5243 33.354C74.7109 33.0087 74.8043 32.598 74.8043 32.122ZM78.1886 32.094C78.1886 31.31 78.3426 30.6147 78.6506 30.008C78.9679 29.4013 79.3972 28.9347 79.9386 28.608C80.4799 28.2813 81.0819 28.118 81.7446 28.118C82.2486 28.118 82.7292 28.23 83.1866 28.454C83.6439 28.6687 84.0079 28.958 84.2786 29.322V25.64H86.2666V36H84.2786V34.852C84.0359 35.2347 83.6952 35.5427 83.2566 35.776C82.8179 36.0093 82.3092 36.126 81.7306 36.126C81.0772 36.126 80.4799 35.958 79.9386 35.622C79.3972 35.286 78.9679 34.8147 78.6506 34.208C78.3426 33.592 78.1886 32.8873 78.1886 32.094ZM84.2926 32.122C84.2926 31.646 84.1992 31.24 84.0126 30.904C83.8259 30.5587 83.5739 30.2973 83.2566 30.12C82.9392 29.9333 82.5986 29.84 82.2346 29.84C81.8706 29.84 81.5346 29.9287 81.2266 30.106C80.9186 30.2833 80.6666 30.5447 80.4706 30.89C80.2839 31.226 80.1906 31.6273 80.1906 32.094C80.1906 32.5607 80.2839 32.9713 80.4706 33.326C80.6666 33.6713 80.9186 33.9373 81.2266 34.124C81.5439 34.3107 81.8799 34.404 82.2346 34.404C82.5986 34.404 82.9392 34.3153 83.2566 34.138C83.5739 33.9513 83.8259 33.69 84.0126 33.354C84.1992 33.0087 84.2926 32.598 84.2926 32.122ZM87.6768 32.094C87.6768 31.31 87.8308 30.6147 88.1388 30.008C88.4562 29.4013 88.8855 28.9347 89.4268 28.608C89.9682 28.2813 90.5702 28.118 91.2328 28.118C91.7368 28.118 92.2175 28.23 92.6748 28.454C93.1322 28.6687 93.4962 28.958 93.7668 29.322V25.64H95.7548V36H93.7668V34.852C93.5242 35.2347 93.1835 35.5427 92.7448 35.776C92.3062 36.0093 91.7975 36.126 91.2188 36.126C90.5655 36.126 89.9682 35.958 89.4268 35.622C88.8855 35.286 88.4562 34.8147 88.1388 34.208C87.8308 33.592 87.6768 32.8873 87.6768 32.094ZM93.7808 32.122C93.7808 31.646 93.6875 31.24 93.5008 30.904C93.3142 30.5587 93.0622 30.2973 92.7448 30.12C92.4275 29.9333 92.0868 29.84 91.7228 29.84C91.3588 29.84 91.0228 29.9287 90.7148 30.106C90.4068 30.2833 90.1548 30.5447 89.9588 30.89C89.7722 31.226 89.6788 31.6273 89.6788 32.094C89.6788 32.5607 89.7722 32.9713 89.9588 33.326C90.1548 33.6713 90.4068 33.9373 90.7148 34.124C91.0322 34.3107 91.3682 34.404 91.7228 34.404C92.0868 34.404 92.4275 34.3153 92.7448 34.138C93.0622 33.9513 93.3142 33.69 93.5008 33.354C93.6875 33.0087 93.7808 32.598 93.7808 32.122ZM99.6291 29.448C99.8811 29.0373 100.208 28.7153 100.609 28.482C101.02 28.2487 101.486 28.132 102.009 28.132V30.19H101.491C100.875 30.19 100.408 30.3347 100.091 30.624C99.7831 30.9133 99.6291 31.4173 99.6291 32.136V36H97.6691V28.244H99.6291V29.448ZM110.539 31.954C110.539 32.234 110.521 32.486 110.483 32.71H104.813C104.86 33.27 105.056 33.7087 105.401 34.026C105.747 34.3433 106.171 34.502 106.675 34.502C107.403 34.502 107.921 34.1893 108.229 33.564H110.343C110.119 34.3107 109.69 34.9267 109.055 35.412C108.421 35.888 107.641 36.126 106.717 36.126C105.971 36.126 105.299 35.9627 104.701 35.636C104.113 35.3 103.651 34.8287 103.315 34.222C102.989 33.6153 102.825 32.9153 102.825 32.122C102.825 31.3193 102.989 30.6147 103.315 30.008C103.642 29.4013 104.099 28.9347 104.687 28.608C105.275 28.2813 105.952 28.118 106.717 28.118C107.455 28.118 108.113 28.2767 108.691 28.594C109.279 28.9113 109.732 29.364 110.049 29.952C110.376 30.5307 110.539 31.198 110.539 31.954ZM108.509 31.394C108.5 30.89 108.318 30.4887 107.963 30.19C107.609 29.882 107.175 29.728 106.661 29.728C106.176 29.728 105.765 29.8773 105.429 30.176C105.103 30.4653 104.902 30.8713 104.827 31.394H108.509ZM114.938 36.126C114.303 36.126 113.734 36.014 113.23 35.79C112.726 35.5567 112.325 35.244 112.026 34.852C111.737 34.46 111.578 34.026 111.55 33.55H113.524C113.561 33.8487 113.706 34.096 113.958 34.292C114.219 34.488 114.541 34.586 114.924 34.586C115.297 34.586 115.587 34.5113 115.792 34.362C116.007 34.2127 116.114 34.0213 116.114 33.788C116.114 33.536 115.983 33.3493 115.722 33.228C115.47 33.0973 115.064 32.9573 114.504 32.808C113.925 32.668 113.449 32.5233 113.076 32.374C112.712 32.2247 112.395 31.996 112.124 31.688C111.863 31.38 111.732 30.9647 111.732 30.442C111.732 30.0127 111.853 29.6207 112.096 29.266C112.348 28.9113 112.703 28.6313 113.16 28.426C113.627 28.2207 114.173 28.118 114.798 28.118C115.722 28.118 116.459 28.3513 117.01 28.818C117.561 29.2753 117.864 29.896 117.92 30.68H116.044C116.016 30.372 115.885 30.1293 115.652 29.952C115.428 29.7653 115.125 29.672 114.742 29.672C114.387 29.672 114.112 29.7373 113.916 29.868C113.729 29.9987 113.636 30.1807 113.636 30.414C113.636 30.6753 113.767 30.876 114.028 31.016C114.289 31.1467 114.695 31.282 115.246 31.422C115.806 31.562 116.268 31.7067 116.632 31.856C116.996 32.0053 117.309 32.2387 117.57 32.556C117.841 32.864 117.981 33.2747 117.99 33.788C117.99 34.236 117.864 34.6373 117.612 34.992C117.369 35.3467 117.015 35.6267 116.548 35.832C116.091 36.028 115.554 36.126 114.938 36.126ZM122.567 36.126C121.932 36.126 121.363 36.014 120.859 35.79C120.355 35.5567 119.953 35.244 119.655 34.852C119.365 34.46 119.207 34.026 119.179 33.55H121.153C121.19 33.8487 121.335 34.096 121.587 34.292C121.848 34.488 122.17 34.586 122.553 34.586C122.926 34.586 123.215 34.5113 123.421 34.362C123.635 34.2127 123.743 34.0213 123.743 33.788C123.743 33.536 123.612 33.3493 123.351 33.228C123.099 33.0973 122.693 32.9573 122.133 32.808C121.554 32.668 121.078 32.5233 120.705 32.374C120.341 32.2247 120.023 31.996 119.753 31.688C119.491 31.38 119.361 30.9647 119.361 30.442C119.361 30.0127 119.482 29.6207 119.725 29.266C119.977 28.9113 120.331 28.6313 120.789 28.426C121.255 28.2207 121.801 28.118 122.427 28.118C123.351 28.118 124.088 28.3513 124.639 28.818C125.189 29.2753 125.493 29.896 125.549 30.68H123.673C123.645 30.372 123.514 30.1293 123.281 29.952C123.057 29.7653 122.753 29.672 122.371 29.672C122.016 29.672 121.741 29.7373 121.545 29.868C121.358 29.9987 121.265 30.1807 121.265 30.414C121.265 30.6753 121.395 30.876 121.657 31.016C121.918 31.1467 122.324 31.282 122.875 31.422C123.435 31.562 123.897 31.7067 124.261 31.856C124.625 32.0053 124.937 32.2387 125.199 32.556C125.469 32.864 125.609 33.2747 125.619 33.788C125.619 34.236 125.493 34.6373 125.241 34.992C124.998 35.3467 124.643 35.6267 124.177 35.832C123.719 36.028 123.183 36.126 122.567 36.126Z" fill="white"/>
<path d="M350.9 26.3199L359.39 23.4899C363.2 22.2199 365.27 24.2999 364.01 28.1099L361.18 36.5999C359.28 42.3099 356.16 42.3099 354.26 36.5999L353.42 34.0799L350.9 33.2399C345.19 31.3399 345.19 28.2299 350.9 26.3199Z" stroke="white" stroke-width="1.5" stroke-linecap="round" stroke-linejoin="round"/>
<path d="M353.61 33.6501L357.19 30.0601" stroke="white" stroke-width="1.5" stroke-linecap="round" stroke-linejoin="round"/>
</svg>
