<svg width="139" height="45" viewBox="0 0 139 45" fill="none" xmlns="http://www.w3.org/2000/svg">
<path d="M55.2187 16.6159V28H53.3513V20.2031L49.8788 28H48.5848L45.0958 20.2031V28H43.2285V16.6159H45.2432L49.24 25.543L53.2203 16.6159H55.2187ZM61.5878 28.1474C60.736 28.1474 59.9662 27.9563 59.2782 27.5741C58.5903 27.181 58.0497 26.635 57.6566 25.9361C57.2635 25.2263 57.0669 24.4073 57.0669 23.4791C57.0669 22.5618 57.2689 21.7483 57.673 21.0385C58.077 20.3287 58.6285 19.7827 59.3274 19.4005C60.0262 19.0183 60.807 18.8272 61.6697 18.8272C62.5324 18.8272 63.3132 19.0183 64.012 19.4005C64.7109 19.7827 65.2624 20.3287 65.6664 21.0385C66.0705 21.7483 66.2725 22.5618 66.2725 23.4791C66.2725 24.3964 66.065 25.2099 65.65 25.9197C65.2351 26.6295 64.6672 27.181 63.9465 27.5741C63.2367 27.9563 62.4505 28.1474 61.5878 28.1474ZM61.5878 26.5258C62.0683 26.5258 62.516 26.4111 62.931 26.1818C63.3568 25.9525 63.7008 25.6085 63.9629 25.1499C64.225 24.6912 64.356 24.1343 64.356 23.4791C64.356 22.8239 64.2304 22.2725 63.9793 21.8247C63.7281 21.3661 63.3951 21.0221 62.9801 20.7928C62.5651 20.5635 62.1174 20.4488 61.6369 20.4488C61.1565 20.4488 60.7087 20.5635 60.2938 20.7928C59.8897 21.0221 59.5676 21.3661 59.3274 21.8247C59.0871 22.2725 58.967 22.8239 58.967 23.4791C58.967 24.451 59.2127 25.2045 59.7041 25.7396C60.2064 26.2637 60.8343 26.5258 61.5878 26.5258ZM76.292 18.9746V28H74.4247V26.9353C74.1299 27.3066 73.7422 27.6014 73.2617 27.8198C72.7922 28.0273 72.2899 28.131 71.7548 28.131C71.045 28.131 70.4062 27.9836 69.8383 27.6888C69.2814 27.3939 68.8391 26.9571 68.5115 26.3784C68.1949 25.7996 68.0365 25.1007 68.0365 24.2817V18.9746H69.8875V24.0033C69.8875 24.8114 70.0895 25.4338 70.4935 25.8706C70.8976 26.2965 71.449 26.5094 72.1479 26.5094C72.8468 26.5094 73.3982 26.2965 73.8023 25.8706C74.2172 25.4338 74.4247 24.8114 74.4247 24.0033V18.9746H76.292ZM82.0318 28.1474C81.322 28.1474 80.6832 28.0218 80.1154 27.7707C79.5584 27.5086 79.1162 27.1592 78.7886 26.7224C78.461 26.2746 78.2863 25.7778 78.2644 25.2318H80.1973C80.23 25.614 80.4102 25.9361 80.7378 26.1982C81.0763 26.4494 81.4967 26.5749 81.9991 26.5749C82.5232 26.5749 82.9273 26.4767 83.2112 26.2801C83.506 26.0726 83.6534 25.8105 83.6534 25.4939C83.6534 25.1553 83.4896 24.9042 83.162 24.7404C82.8454 24.5766 82.3376 24.3964 81.6387 24.1998C80.9617 24.0142 80.4102 23.834 79.9843 23.6593C79.5584 23.4846 79.1872 23.217 78.8705 22.8567C78.5647 22.4963 78.4118 22.0213 78.4118 21.4316C78.4118 20.9511 78.5538 20.5143 78.8377 20.1212C79.1216 19.7172 79.5257 19.4005 80.0498 19.1712C80.5849 18.9419 81.1964 18.8272 81.8844 18.8272C82.9109 18.8272 83.7353 19.0893 84.3578 19.6134C84.9911 20.1267 85.3297 20.831 85.3733 21.7265H83.506C83.4733 21.3224 83.3095 21.0003 83.0146 20.76C82.7198 20.5198 82.3212 20.3997 81.8189 20.3997C81.3275 20.3997 80.9507 20.4925 80.6887 20.6781C80.4266 20.8638 80.2955 21.1095 80.2955 21.4152C80.2955 21.6555 80.3829 21.8575 80.5576 22.0213C80.7323 22.1851 80.9453 22.3161 81.1964 22.4144C81.4476 22.5018 81.8189 22.6164 82.3103 22.7584C82.9655 22.9331 83.5006 23.1133 83.9155 23.2989C84.3414 23.4737 84.7072 23.7357 85.013 24.0852C85.3187 24.4346 85.4771 24.8987 85.488 25.4775C85.488 25.9907 85.346 26.4494 85.0621 26.8534C84.7782 27.2574 84.3742 27.5741 83.85 27.8034C83.3368 28.0328 82.7307 28.1474 82.0318 28.1474ZM95.7776 23.2662C95.7776 23.6047 95.7557 23.9105 95.7121 24.1835H88.8161C88.8707 24.9042 89.1382 25.4829 89.6187 25.9197C90.0992 26.3565 90.6889 26.5749 91.3877 26.5749C92.3924 26.5749 93.1022 26.1545 93.5171 25.3137H95.5319C95.2589 26.1436 94.762 26.8261 94.0413 27.3612C93.3315 27.8853 92.447 28.1474 91.3877 28.1474C90.5251 28.1474 89.7497 27.9563 89.0618 27.5741C88.3847 27.181 87.8497 26.635 87.4565 25.9361C87.0743 25.2263 86.8832 24.4073 86.8832 23.4791C86.8832 22.5509 87.0689 21.7374 87.4402 21.0385C87.8224 20.3287 88.352 19.7827 89.029 19.4005C89.717 19.0183 90.5032 18.8272 91.3877 18.8272C92.2395 18.8272 92.9984 19.0128 93.6646 19.3841C94.3307 19.7554 94.8494 20.2796 95.2207 20.9566C95.5919 21.6227 95.7776 22.3926 95.7776 23.2662ZM93.8284 22.6765C93.8174 21.9885 93.5717 21.4371 93.0913 21.0221C92.6108 20.6072 92.0156 20.3997 91.3058 20.3997C90.6616 20.3997 90.1101 20.6072 89.6515 21.0221C89.1928 21.4262 88.9198 21.9776 88.8325 22.6765H93.8284Z" fill="#1B5A7D"/>
<rect x="0.5" y="0.5" width="138" height="44" rx="19.5" stroke="#B5B5B5"/>
</svg>
