<svg width="134" height="45" viewBox="0 0 134 45" fill="none" xmlns="http://www.w3.org/2000/svg">
<rect width="134" height="45" rx="20" fill="#EDA415"/>
<path d="M35.6021 27H33.9959L29.163 19.6873V27H27.5568V17.1934H29.163L33.9959 24.492V17.1934H35.6021V27ZM44.8269 22.928C44.8269 23.2192 44.8081 23.4822 44.7705 23.717H38.8387C38.8856 24.337 39.1158 24.8348 39.5291 25.2106C39.9424 25.5863 40.4496 25.7742 41.0508 25.7742C41.915 25.7742 42.5255 25.4125 42.8825 24.6892H44.6156C44.3807 25.4031 43.9533 25.9902 43.3334 26.4505C42.7228 26.9014 41.9619 27.1268 41.0508 27.1268C40.3087 27.1268 39.6418 26.9624 39.05 26.6337C38.4676 26.2955 38.0073 25.8258 37.6692 25.2247C37.3404 24.6141 37.176 23.9096 37.176 23.1112C37.176 22.3127 37.3357 21.6129 37.6551 21.0117C37.9839 20.4012 38.4394 19.9315 39.0218 19.6027C39.6136 19.274 40.2899 19.1096 41.0508 19.1096C41.7835 19.1096 42.4363 19.2693 43.0093 19.5887C43.5823 19.908 44.0285 20.3589 44.3478 20.9413C44.6672 21.5143 44.8269 22.1765 44.8269 22.928ZM43.1502 22.4207C43.1408 21.829 42.9295 21.3546 42.5161 20.9977C42.1028 20.6407 41.5909 20.4622 40.9803 20.4622C40.4261 20.4622 39.9518 20.6407 39.5572 20.9977C39.1627 21.3452 38.9279 21.8196 38.8527 22.4207H43.1502ZM56.8342 19.2364L54.4248 27H52.734L51.17 21.2654L49.6061 27H47.9153L45.4918 19.2364H47.1262L48.7466 25.4783L50.3951 19.2364H52.0718L53.6499 25.4501L55.2561 19.2364H56.8342ZM63.301 16.5734V27H61.6947V16.5734H63.301ZM64.8744 23.083C64.8744 22.3033 65.0341 21.6129 65.3535 21.0117C65.6823 20.4106 66.1238 19.9456 66.678 19.6168C67.2416 19.2787 67.8615 19.1096 68.5378 19.1096C69.1484 19.1096 69.6791 19.2317 70.13 19.4759C70.5903 19.7108 70.9566 20.0067 71.229 20.3636V19.2364H72.8494V27H71.229V25.8446C70.9566 26.211 70.5856 26.5162 70.1159 26.7605C69.6463 27.0047 69.1108 27.1268 68.5097 27.1268C67.8427 27.1268 67.2322 26.9577 66.678 26.6196C66.1238 26.272 65.6823 25.793 65.3535 25.1824C65.0341 24.5624 64.8744 23.8626 64.8744 23.083ZM71.229 23.1112C71.229 22.5757 71.1163 22.1108 70.8909 21.7162C70.6748 21.3217 70.3883 21.0211 70.0314 20.8145C69.6744 20.6078 69.2893 20.5045 68.876 20.5045C68.4627 20.5045 68.0776 20.6078 67.7206 20.8145C67.3637 21.0117 67.0725 21.3076 66.847 21.7022C66.631 22.0873 66.523 22.5476 66.523 23.083C66.523 23.6184 66.631 24.0881 66.847 24.492C67.0725 24.8959 67.3637 25.2059 67.7206 25.4219C68.087 25.6286 68.4721 25.7319 68.876 25.7319C69.2893 25.7319 69.6744 25.6286 70.0314 25.4219C70.3883 25.2153 70.6748 24.9147 70.8909 24.5202C71.1163 24.1162 71.229 23.6466 71.229 23.1112ZM76.5654 20.3777C76.8378 20.0208 77.2088 19.7202 77.6785 19.4759C78.1482 19.2317 78.6789 19.1096 79.2707 19.1096C79.947 19.1096 80.5623 19.2787 81.1165 19.6168C81.6801 19.9456 82.1216 20.4106 82.4409 21.0117C82.7603 21.6129 82.92 22.3033 82.92 23.083C82.92 23.8626 82.7603 24.5624 82.4409 25.1824C82.1216 25.793 81.6801 26.272 81.1165 26.6196C80.5623 26.9577 79.947 27.1268 79.2707 27.1268C78.6789 27.1268 78.1529 27.0094 77.6926 26.7746C77.2323 26.5303 76.8566 26.2297 76.5654 25.8728V30.6916H74.9591V19.2364H76.5654V20.3777ZM81.2856 23.083C81.2856 22.5476 81.1728 22.0873 80.9474 21.7022C80.7313 21.3076 80.4402 21.0117 80.0738 20.8145C79.7169 20.6078 79.3317 20.5045 78.9184 20.5045C78.5145 20.5045 78.1294 20.6078 77.7631 20.8145C77.4061 21.0211 77.1149 21.3217 76.8895 21.7162C76.6734 22.1108 76.5654 22.5757 76.5654 23.1112C76.5654 23.6466 76.6734 24.1162 76.8895 24.5202C77.1149 24.9147 77.4061 25.2153 77.7631 25.4219C78.1294 25.6286 78.5145 25.7319 78.9184 25.7319C79.3317 25.7319 79.7169 25.6286 80.0738 25.4219C80.4402 25.2059 80.7313 24.8959 80.9474 24.492C81.1728 24.0881 81.2856 23.6184 81.2856 23.083ZM86.3824 20.5468V24.8442C86.3824 25.1354 86.4481 25.3468 86.5796 25.4783C86.7205 25.6004 86.9554 25.6614 87.2841 25.6614H88.2704V27H87.0023C86.2791 27 85.7249 26.8309 85.3397 26.4928C84.9546 26.1546 84.762 25.6051 84.762 24.8442V20.5468H83.8462V19.2364H84.762V17.3061H86.3824V19.2364H88.2704V20.5468H86.3824ZM93.1184 27.1268C92.3857 27.1268 91.7235 26.9624 91.1317 26.6337C90.5399 26.2955 90.075 25.8258 89.7368 25.2247C89.3986 24.6141 89.2296 23.9096 89.2296 23.1112C89.2296 22.3221 89.4033 21.6223 89.7509 21.0117C90.0984 20.4012 90.5728 19.9315 91.174 19.6027C91.7752 19.274 92.4468 19.1096 93.1889 19.1096C93.9309 19.1096 94.6025 19.274 95.2037 19.6027C95.8049 19.9315 96.2793 20.4012 96.6268 21.0117C96.9744 21.6223 97.1481 22.3221 97.1481 23.1112C97.1481 23.9002 96.9697 24.6 96.6127 25.2106C96.2558 25.8211 95.7673 26.2955 95.1474 26.6337C94.5368 26.9624 93.8605 27.1268 93.1184 27.1268ZM93.1184 25.7319C93.5317 25.7319 93.9168 25.6333 94.2738 25.436C94.6401 25.2387 94.936 24.9429 95.1615 24.5483C95.3869 24.1538 95.4996 23.6748 95.4996 23.1112C95.4996 22.5476 95.3916 22.0732 95.1755 21.6881C94.9595 21.2935 94.673 20.9977 94.3161 20.8004C93.9591 20.6031 93.574 20.5045 93.1607 20.5045C92.7474 20.5045 92.3622 20.6031 92.0053 20.8004C91.6577 20.9977 91.3806 21.2935 91.174 21.6881C90.9673 22.0732 90.864 22.5476 90.864 23.1112C90.864 23.9472 91.0754 24.5953 91.4981 25.0556C91.9301 25.5065 92.4703 25.7319 93.1184 25.7319ZM100.342 20.3777C100.615 20.0208 100.986 19.7202 101.455 19.4759C101.925 19.2317 102.456 19.1096 103.048 19.1096C103.724 19.1096 104.339 19.2787 104.893 19.6168C105.457 19.9456 105.898 20.4106 106.218 21.0117C106.537 21.6129 106.697 22.3033 106.697 23.083C106.697 23.8626 106.537 24.5624 106.218 25.1824C105.898 25.793 105.457 26.272 104.893 26.6196C104.339 26.9577 103.724 27.1268 103.048 27.1268C102.456 27.1268 101.93 27.0094 101.469 26.7746C101.009 26.5303 100.633 26.2297 100.342 25.8728V30.6916H98.736V19.2364H100.342V20.3777ZM105.062 23.083C105.062 22.5476 104.95 22.0873 104.724 21.7022C104.508 21.3076 104.217 21.0117 103.851 20.8145C103.494 20.6078 103.109 20.5045 102.695 20.5045C102.291 20.5045 101.906 20.6078 101.54 20.8145C101.183 21.0211 100.892 21.3217 100.666 21.7162C100.45 22.1108 100.342 22.5757 100.342 23.1112C100.342 23.6466 100.45 24.1162 100.666 24.5202C100.892 24.9147 101.183 25.2153 101.54 25.4219C101.906 25.6286 102.291 25.7319 102.695 25.7319C103.109 25.7319 103.494 25.6286 103.851 25.4219C104.217 25.2059 104.508 24.8959 104.724 24.492C104.95 24.0881 105.062 23.6184 105.062 23.083Z" fill="white"/>
</svg>
