<svg width="139" height="45" viewBox="0 0 139 45" fill="none" xmlns="http://www.w3.org/2000/svg">
<path d="M47.5831 16.6159V18.1392H44.5528V28H42.6855V18.1392H39.6388V16.6159H47.5831ZM48.8518 23.4464C48.8518 22.54 49.0374 21.7374 49.4087 21.0385C49.7909 20.3396 50.3042 19.7991 50.9484 19.4169C51.6036 19.0238 52.3244 18.8272 53.1106 18.8272C53.8204 18.8272 54.4374 18.9692 54.9615 19.2531C55.4966 19.5261 55.9225 19.8701 56.2392 20.285V18.9746H58.1229V28H56.2392V26.6568C55.9225 27.0827 55.4912 27.4376 54.9452 27.7215C54.3992 28.0055 53.7767 28.1474 53.0778 28.1474C52.3025 28.1474 51.5927 27.9509 50.9484 27.5577C50.3042 27.1537 49.7909 26.5968 49.4087 25.887C49.0374 25.1663 48.8518 24.3527 48.8518 23.4464ZM56.2392 23.4791C56.2392 22.8567 56.1081 22.3161 55.8461 21.8575C55.5949 21.3989 55.2618 21.0494 54.8469 20.8092C54.4319 20.5689 53.9842 20.4488 53.5037 20.4488C53.0232 20.4488 52.5755 20.5689 52.1606 20.8092C51.7456 21.0385 51.4071 21.3825 51.145 21.8411C50.8938 22.2888 50.7683 22.8239 50.7683 23.4464C50.7683 24.0688 50.8938 24.6148 51.145 25.0844C51.4071 25.5539 51.7456 25.9143 52.1606 26.1654C52.5864 26.4057 53.0342 26.5258 53.5037 26.5258C53.9842 26.5258 54.4319 26.4057 54.8469 26.1654C55.2618 25.9252 55.5949 25.5758 55.8461 25.1171C56.1081 24.6476 56.2392 24.1016 56.2392 23.4791ZM62.4429 20.3178C62.7595 19.881 63.1909 19.5261 63.7369 19.2531C64.2938 18.9692 64.9108 18.8272 65.5878 18.8272C66.385 18.8272 67.1057 19.0183 67.75 19.4005C68.3943 19.7827 68.902 20.3287 69.2733 21.0385C69.6446 21.7374 69.8302 22.54 69.8302 23.4464C69.8302 24.3527 69.6446 25.1663 69.2733 25.887C68.902 26.5968 68.3888 27.1537 67.7336 27.5577C67.0893 27.9509 66.3741 28.1474 65.5878 28.1474C64.8889 28.1474 64.2665 28.0109 63.7205 27.7379C63.1854 27.4649 62.7595 27.1155 62.4429 26.6896V28H60.5755V15.8788H62.4429V20.3178ZM67.9302 23.4464C67.9302 22.8239 67.7991 22.2888 67.537 21.8411C67.2859 21.3825 66.9474 21.0385 66.5215 20.8092C66.1065 20.5689 65.6588 20.4488 65.1783 20.4488C64.7088 20.4488 64.261 20.5689 63.8352 20.8092C63.4202 21.0494 63.0817 21.3989 62.8196 21.8575C62.5684 22.3161 62.4429 22.8567 62.4429 23.4791C62.4429 24.1016 62.5684 24.6476 62.8196 25.1171C63.0817 25.5758 63.4202 25.9252 63.8352 26.1654C64.261 26.4057 64.7088 26.5258 65.1783 26.5258C65.6588 26.5258 66.1065 26.4057 66.5215 26.1654C66.9474 25.9143 67.2859 25.5539 67.537 25.0844C67.7991 24.6148 67.9302 24.0688 67.9302 23.4464ZM73.5441 15.8788V28H71.6768V15.8788H73.5441ZM84.2677 23.2662C84.2677 23.6047 84.2458 23.9105 84.2021 24.1835H77.3062C77.3608 24.9042 77.6283 25.4829 78.1088 25.9197C78.5893 26.3565 79.1789 26.5749 79.8778 26.5749C80.8825 26.5749 81.5923 26.1545 82.0072 25.3137H84.022C83.749 26.1436 83.2521 26.8261 82.5314 27.3612C81.8216 27.8853 80.9371 28.1474 79.8778 28.1474C79.0151 28.1474 78.2398 27.9563 77.5519 27.5741C76.8748 27.181 76.3397 26.635 75.9466 25.9361C75.5644 25.2263 75.3733 24.4073 75.3733 23.4791C75.3733 22.5509 75.559 21.7374 75.9302 21.0385C76.3124 20.3287 76.8421 19.7827 77.5191 19.4005C78.2071 19.0183 78.9933 18.8272 79.8778 18.8272C80.7296 18.8272 81.4885 19.0128 82.1546 19.3841C82.8208 19.7554 83.3395 20.2796 83.7107 20.9566C84.082 21.6227 84.2677 22.3926 84.2677 23.2662ZM82.3184 22.6765C82.3075 21.9885 82.0618 21.4371 81.5813 21.0221C81.1009 20.6072 80.5057 20.3997 79.7959 20.3997C79.1516 20.3997 78.6002 20.6072 78.1415 21.0221C77.6829 21.4262 77.4099 21.9776 77.3225 22.6765H82.3184ZM88.2838 20.498V25.4939C88.2838 25.8324 88.3603 26.0781 88.5132 26.231C88.677 26.3729 88.95 26.4439 89.3322 26.4439H90.4788V28H89.0046C88.1637 28 87.5194 27.8034 87.0717 27.4103C86.624 27.0172 86.4001 26.3784 86.4001 25.4939V20.498H85.3354V18.9746H86.4001V16.7306H88.2838V18.9746H90.4788V20.498H88.2838ZM95.4758 28.1474C94.766 28.1474 94.1272 28.0218 93.5593 27.7707C93.0024 27.5086 92.5602 27.1592 92.2326 26.7224C91.905 26.2746 91.7302 25.7778 91.7084 25.2318H93.6412C93.674 25.614 93.8542 25.9361 94.1818 26.1982C94.5203 26.4494 94.9407 26.5749 95.443 26.5749C95.9672 26.5749 96.3712 26.4767 96.6552 26.2801C96.95 26.0726 97.0974 25.8105 97.0974 25.4939C97.0974 25.1553 96.9336 24.9042 96.606 24.7404C96.2893 24.5766 95.7816 24.3964 95.0827 24.1998C94.4056 24.0142 93.8542 23.834 93.4283 23.6593C93.0024 23.4846 92.6311 23.217 92.3145 22.8567C92.0087 22.4963 91.8558 22.0213 91.8558 21.4316C91.8558 20.9511 91.9978 20.5143 92.2817 20.1212C92.5656 19.7172 92.9697 19.4005 93.4938 19.1712C94.0289 18.9419 94.6404 18.8272 95.3284 18.8272C96.3549 18.8272 97.1793 19.0893 97.8018 19.6134C98.4351 20.1267 98.7736 20.831 98.8173 21.7265H96.95C96.9172 21.3224 96.7534 21.0003 96.4586 20.76C96.1638 20.5198 95.7652 20.3997 95.2629 20.3997C94.7715 20.3997 94.3947 20.4925 94.1326 20.6781C93.8706 20.8638 93.7395 21.1095 93.7395 21.4152C93.7395 21.6555 93.8269 21.8575 94.0016 22.0213C94.1763 22.1851 94.3893 22.3161 94.6404 22.4144C94.8916 22.5018 95.2629 22.6164 95.7543 22.7584C96.4095 22.9331 96.9445 23.1133 97.3595 23.2989C97.7854 23.4737 98.1512 23.7357 98.457 24.0852C98.7627 24.4346 98.9211 24.8987 98.932 25.4775C98.932 25.9907 98.79 26.4494 98.5061 26.8534C98.2222 27.2574 97.8181 27.5741 97.294 27.8034C96.7807 28.0328 96.1747 28.1474 95.4758 28.1474Z" fill="#1B5A7D"/>
<rect x="0.5" y="0.5" width="138" height="44" rx="19.5" stroke="#B5B5B5"/>
</svg>
